<?xml version="1.0" encoding="utf-8"?>
<!-- Generator: Adobe Illustrator 26.0.1, SVG Export Plug-In . SVG Version: 6.00 Build 0)  -->
<svg version="1.1" id="Layer_1" xmlns="http://www.w3.org/2000/svg" xmlns:xlink="http://www.w3.org/1999/xlink" x="0px" y="0px"
	 viewBox="0 0 236.6 109" style="enable-background:new 0 0 236.6 109;" xml:space="preserve">
<style type="text/css">
	.st0{fill:#F4F5F6;}
</style>
<path class="st0" d="M0,89.2L6,89c1.6-11.5,2.6-20.3,3.3-26.5l8.1-1.1c12.5-3.5,19.2-11.2,20-23v-3.8c-1.4-9.9-7.9-14.8-19.9-14.8
	l-2.9,0.1l-6,2.2l-2.9-1.5l-4.5,0.2C1,32.5,0.6,45.2,0.1,58.7c0.2,2.2,0.3,4.5,0.3,6.8c0,3.2-0.1,7-0.4,11.4L0,89.2z M9.5,53.7
	c-0.8,0-1.2-0.3-1.2-1l0.1-0.8L8.6,44l0.7-10.8c0.1-4.2,2.4-6.3,7-6.3c8.2,0,13,2.5,14.2,7.7v5.6c-3.8,8.7-9.1,13-16,13
	c-0.8,0-1.6-0.1-2.4-0.2C11.2,53.5,10.4,53.7,9.5,53.7z M43.6,72.7c-1.3-0.5-2-3.2-2-8.2l1.2-5.9c1.5-6.2,3.8-10.1,7.1-11.8
	c1.8,0,3.3,1.8,4.7,5.4v7.5C51,66.3,47.3,70.6,43.6,72.7L43.6,72.7z M56.5,67.5c2.5,6.7,6.3,10,11.6,10h2.4v-1.3
	c-5.5-3.2-8.2-8.2-8.2-15l0.6-0.8v-0.7L62.2,59l2-9.1c0.6,0,0.9-1.5,0.9-4.5c0-1.6-0.9-3.3-2.5-5.3c-3.8,0-5.7,1.1-5.7,3.2
	c-1.4-1.8-3.6-2.6-6.8-2.6C40.3,42.9,34.9,53.1,34,71.4c0.5,5.9,3.4,8.8,8.7,8.8C47,80.2,51.6,76,56.5,67.5L56.5,67.5z M83.5,80.2
	c1.2,0,2.4-0.1,3.6-0.2c11.5-1.9,17.2-6.2,17.2-13c0-5.1-3.6-8.4-10.9-9.9c-2.1,0-5.7-0.3-11-0.9c0.2-7.2,4.9-10.8,14.1-10.8h0.3
	l1.5,2.3v2.6l3,0.3c1.6,0,2.5-1.4,3.1-4.1v-0.4c0-3.7-2.8-5.9-8.5-6.6h-0.4c-4.4,0.2-8.6,1.4-12.5,3.4c-5.2,3.1-7.9,8.2-8.3,15.3
	c1,3.2,3.1,4.8,6.3,4.8h8.5c4.4,0.5,6.7,1.4,6.8,2.5v0.7c0.1,0.5,0.1,1,0.1,1.6c0,4-4,6.3-12,6.7c-2-0.1-3.9-0.7-5.6-1.8l-0.1-0.5
	c0-1.6,1-3.1,2.6-3.6l-3.9-3c-3.3,1.3-5,3.1-5,5.7c0.1,1.1,0.3,2.1,0.6,3.1C73.7,78.2,77.2,80.2,83.5,80.2z M118.5,80.2
	c1.2,0,2.4-0.1,3.6-0.2c11.5-1.9,17.1-6.2,17.1-13c0-5.1-3.6-8.4-10.9-9.9c-2.1,0-5.7-0.3-11-0.9c0.2-7.2,4.9-10.8,14.1-10.8h0.3
	l1.5,2.3v2.6l3,0.3c1.6,0,2.5-1.4,3.1-4.1v-0.4c0-3.7-2.8-5.9-8.5-6.6h-0.4c-4.4,0.2-8.6,1.3-12.4,3.4c-5.2,3.1-7.9,8.2-8.3,15.3
	c1,3.2,3.1,4.8,6.3,4.8h8.5c4.4,0.5,6.7,1.4,6.8,2.5v0.7c0.1,0.5,0.1,1,0.1,1.6c0,4-4,6.3-12,6.7c-2-0.1-3.9-0.7-5.6-1.8l-0.1-0.5
	c0-1.6,1-3.1,2.5-3.6l-3.9-3c-3.3,1.3-5,3.1-5,5.7c0.1,1.1,0.3,2.1,0.6,3.1C108.7,78.2,112.2,80.2,118.5,80.2L118.5,80.2z
	 M158.9,35.8l1.2-2.8c-0.9-4.2-3.7-6.4-8.5-6.6l-2.6,4.1c1,3.3,4.2,5.5,7.6,5.3L158.9,35.8z M154.9,82.9c0.4-7.1,1.2-19.6,2.4-37.6
	c0-2-0.9-2.9-2.6-2.9h-3.2c-1.8,0-3.5,9.5-5.3,28.4c0.6,8.1,2.1,12.2,4.4,12.2H154.9z M176.1,80.3c9.9-2.2,15.9-8.3,17.9-18.6
	c-0.1-6.3-1.6-11.1-4.4-14.3c-2.3-3.8-5.9-6.5-10.8-7.9H175c-9,7.6-13.5,16.5-13.5,26.5v5.2c0,4.9,3.5,7.9,10.5,9.2H176.1z
	 M173.9,74.1c-3.4,0-5.2-2.7-5.2-8.2c0-5.2,1.8-10.3,5.2-14.2c1.5-1.8,3.8-2.8,6.2-2.6l1.8,0.1c1.3,0,2.6,1.6,4,4.6l0.7,4.2
	l-0.7,3.7C182.8,70,178.8,74.1,173.9,74.1z M199.7,80.3c2.2,0,4.3-3.4,6.5-10.3c6.1-13.1,12.1-19.6,17.9-19.6h1.8
	c1.6,0.6,2.3,2.8,2.3,6.9c0,1.3-0.5,7.5-1.7,18.6v3.9h6.3c2.4-8.2,3.7-16.6,3.8-25.1l-0.1-2.9c-1.5-8-5.6-12.1-12.3-12.1
	c-8.7,1.8-15.3,8.5-19.6,20.3v-9.3c-0.9-5.3-2.9-7.9-6.3-7.9l-2.1,2l0.1,6.6c-0.7,4.8-1,9.6-0.9,14.4v12.6l2.1,2L199.7,80.3z"/>
</svg>
