<?xml version="1.0" encoding="utf-8"?>
<!-- Generator: Adobe Illustrator 26.0.1, SVG Export Plug-In . SVG Version: 6.00 Build 0)  -->
<svg version="1.1" id="Layer_1" xmlns="http://www.w3.org/2000/svg" xmlns:xlink="http://www.w3.org/1999/xlink" x="0px" y="0px"
	 viewBox="0 0 369.4 109" style="enable-background:new 0 0 369.4 109;" xml:space="preserve">
<style type="text/css">
	.st0{fill:#F4F5F6;}
</style>
<path class="st0" d="M17.8,80.4c5.6,0,13-4.5,22.5-13.4l-2.5-2.4h-3c-7.8,6.2-13.1,9.3-15.9,9.3c-6.1-1.1-9.1-5.2-9.1-12.4v-5.6
	l1.9-11C17.9,24.3,24,14.1,29.9,14.1l-3.3-3.3L19.7,13C9.7,23.8,3.1,39.3,0,59.6c2.3,13.9,7.5,20.8,16,20.8H17.8z M50.2,49
	c-0.1-8.5-2.5-14-7.1-16.4c-3.6,0-5.8,0.9-6.5,2.7v2.3c4.2,0,6.4,7.3,6.4,21.9L42.1,70l2.1,2.1h5.6l1.3-1.3
	c4.2-21.7,11.4-32.4,21.7-32.4c0.9,0,1.8,0.1,2.6,0.2c0.3-0.8,0.4-1.7,0.4-2.5c0-3-2.3-4.6-6.7-4.6C60.4,31.4,54.1,37.3,50.2,49z
	 M98.4,71.8c6-1.5,12.8-4.6,20.5-9.4v-5h-2c-9.7,5-15.4,7.5-17.1,7.5h-4.4c-3,0-4.5-0.7-4.5-2v-1H91c16-8.6,24-16.1,24-22.3
	c-1.2-5.3-3.7-7.9-7.6-7.9c-4.3,0-10.4,3.1-18.2,9.4c-4.1,7.9-7.4,12.6-9.9,14.2c0,3.4,1,5.2,2.9,5.2C82.2,66.8,87.6,70.5,98.4,71.8
	z M89.6,56.5h-0.7l1.8-6c3.4-5.7,7.3-9.2,11.5-10.6c2.9,0,4.4,0.3,4.4,0.9v1.9C102.6,49,96.6,53.9,89.6,56.5z M129.9,64.3
	c-1.3-0.5-2-3.2-2-8.2l1.2-5.9c1.5-6.2,3.8-10.1,7.1-11.8c1.8,0,3.3,1.8,4.7,5.4v7.5C137.2,57.9,133.6,62.2,129.9,64.3z M142.8,59.2
	c2.4,6.7,6.3,10,11.6,10h2.3v-1.3c-5.5-3.2-8.2-8.2-8.2-15l0.6-0.8v-0.7l-0.6-0.8l2-9.1c0.6,0,0.9-1.5,0.9-4.5
	c0-1.6-0.9-3.3-2.5-5.3c-3.8,0-5.7,1.1-5.7,3.2c-1.4-1.8-3.6-2.6-6.8-2.6c-9.8,2.3-15.2,12.4-16.1,30.7c0.5,5.9,3.4,8.8,8.7,8.8
	C133.3,71.8,137.9,67.6,142.8,59.2L142.8,59.2z M179.3,75c9.2-0.5,14.6-4.5,16.2-12.1l-3.2-1.9c-2.4,3.6-5.4,5.8-8.8,6.5h-0.6
	c-3.2,0-4.8-1.7-4.8-5c0-1.4,0.2-2.7,0.6-4c0.9-6.5,2.7-12.8,5.4-18.8c9.5-1.2,15.1-2.5,16.7-3.9l0.6-4.7l-15.2,1.5l5.6-15.5
	l-5.9-1.6c-2.4,1.1-5.3,6.8-8.9,17.1L161,33.3l-2,1.8c-0.1,0.5-0.2,1-0.2,1.5c0,2.2,1.1,3.5,3.3,4.3c4.5,0,8.5-0.1,12.1-0.3
	l-5.3,19.8l-0.1,2.3C168.9,70.1,172.3,74.3,179.3,75z M219.6,27.4l1.2-2.8c-0.9-4.2-3.7-6.4-8.5-6.6l-2.6,4.1c1,3.3,4.2,5.5,7.6,5.3
	L219.6,27.4z M215.7,74.5c0.4-7.1,1.2-19.6,2.4-37.6c0-2-0.9-2.9-2.6-2.9h-3.2c-1.8,0-3.5,9.5-5.3,28.4c0.6,8.1,2.1,12.2,4.4,12.2
	H215.7z M238.4,71.8l3.7-4.7c7.4-14.4,12.8-24.8,16.3-31.2l-0.9-2.2l-4.7-0.8c-2.4,2.3-5.9,7.6-10.3,16.1c-3.6,6.1-5.4,9.7-5.4,11
	v0.3l-7.3-28.6h-6.3l-1.4,1.3l0.9,2.6c3.6,20.6,7.5,32.6,11.7,36.2L238.4,71.8z M276.8,27.4l1.2-2.8c-0.9-4.2-3.7-6.4-8.5-6.6
	l-2.6,4.1c1,3.3,4.2,5.5,7.6,5.3H276.8z M272.8,74.5c0.4-7.1,1.2-19.6,2.5-37.6c0-2-0.9-2.9-2.6-2.9h-3.2c-1.8,0-3.5,9.5-5.3,28.4
	c0.6,8.1,2.1,12.2,4.4,12.2H272.8z M300.6,75c9.2-0.5,14.6-4.5,16.2-12.1l-3.2-1.9c-2.4,3.6-5.4,5.8-8.8,6.5h-0.6
	c-3.2,0-4.8-1.7-4.8-5c0-1.4,0.2-2.7,0.6-4c0.9-6.5,2.7-12.8,5.4-18.8c9.5-1.2,15.1-2.5,16.7-3.9l0.6-4.7l-15.2,1.5l5.6-15.5
	l-5.9-1.6c-2.4,1.1-5.3,6.8-8.9,17.1l-15.9,0.7l-2,1.8c-0.1,0.5-0.2,1-0.2,1.5c0,2.2,1.1,3.5,3.3,4.3c4.5,0,8.5-0.1,12.1-0.3
	l-5.3,19.8l-0.1,2.3C290.1,70.1,293.5,74.3,300.6,75L300.6,75z M327.7,98.3c0.8-0.1,1.6-0.4,2.3-0.8c4.6-2.6,8.7-6,12.1-10.1
	c11.4-13.9,19.9-29.9,25.3-47l2.1-12.3l-4.3-2.3h-4.4c-1.5,9.4-5,19.6-10.7,30.6c-9.4-15.7-15.6-24.4-18.5-26.2H325v3.2l4.1,7.4
	c6.4,12.2,11.4,21.3,15.1,27.2c-2.6,5.8-7.2,13.4-13.5,22.9c-2.4,3.4-3.5,5.7-3.5,6.7C327.1,98.1,327.3,98.3,327.7,98.3z"/>
</svg>
