<?xml version="1.0" encoding="utf-8"?>
<!-- Generator: Adobe Illustrator 26.0.1, SVG Export Plug-In . SVG Version: 6.00 Build 0)  -->
<svg version="1.1" id="Layer_1" xmlns="http://www.w3.org/2000/svg" xmlns:xlink="http://www.w3.org/1999/xlink" x="0px" y="0px"
	 viewBox="0 0 234.8 109" style="enable-background:new 0 0 234.8 109;" xml:space="preserve">
<style type="text/css">
	.st0{fill:#F4F5F6;}
</style>
<path class="st0" d="M2.4,89.4l6.4-1.2c-0.6-5.4-0.9-10.9-0.9-16.4C7.8,69,8,63.3,8.4,55c1-2.6,5.9-4.5,14.6-5.6
	c10.1-0.6,15.2-2,15.2-4.2l-0.3-4.9L28.7,41c-7,0.2-13.8,1.6-20.3,4.3v-6.6L7.3,30c6.9-1.9,13.9-3.1,21-3.6l6.9,0.7l1.5-3.6
	l-0.8-2.8c-3.7-0.6-7.5-1-11.3-1c-9.7,0-17.8,2.4-24.5,7.2c0,14.8,0,25.7-0.1,32.7V65C0,80.6,0.8,88.7,2.4,89.4z M69.7,79.7l1.2-1.1
	L70.4,68c0-7.2,0.3-14.4,1.2-21.6c0-2.5-1.3-4.2-3.8-5.2l-0.5-0.1c-1.3,0-2.7,1.4-4.5,3.9C59.9,57.5,56.1,66,51.2,70.3l-0.8,0.1
	c-2.6,0-4-2.5-4-7.4c0-1.8,0.1-3.5,0.4-5.3c1.7-8.5,2.6-13.5,2.9-14.9L49.1,40l-4.4-0.9c-2.5,0-4.9,8-7,24.1
	c0,9.3,2.7,14.7,8.2,16.2h5.3c6.8-3.3,10.8-7.6,12-12.9c0.2,4.6,1.8,9.1,4.7,12.7L69.7,79.7z M94.1,82.6c9.2-0.5,14.6-4.5,16.2-12.1
	l-3.2-1.9c-2.5,3.6-5.4,5.8-8.8,6.5h-0.6c-3.2,0-4.8-1.7-4.8-5c0-1.4,0.2-2.7,0.6-4c0.9-6.5,2.7-12.8,5.4-18.8
	c9.5-1.2,15.1-2.5,16.7-3.9l0.6-4.7l-15.2,1.5l5.6-15.5l-5.9-1.6c-2.4,1.1-5.3,6.8-8.9,17.1l-15.9,0.7l-2,1.8
	c-0.1,0.5-0.2,1-0.2,1.5c0,2.2,1.1,3.5,3.3,4.3c4.5,0,8.5-0.1,12.1-0.3l-5.3,19.8l-0.1,2.3C83.6,77.7,87,81.9,94.1,82.6L94.1,82.6z
	 M149.3,79.7l1.2-1.1L150,68c0-7.2,0.3-14.4,1.2-21.6c0-2.5-1.3-4.2-3.8-5.2l-0.5-0.1c-1.3,0-2.7,1.4-4.5,3.9
	c-2.8,12.4-6.7,20.9-11.6,25.2l-0.8,0.1c-2.6,0-4-2.5-4-7.4c0-1.8,0.1-3.5,0.4-5.3c1.7-8.5,2.6-13.5,2.9-14.9l-0.6-2.7l-4.4-0.9
	c-2.5,0-4.9,8-7,24.1c0,9.3,2.7,14.7,8.2,16.2h5.3c6.8-3.3,10.8-7.6,12-12.9c0.2,4.6,1.8,9.1,4.7,12.7L149.3,79.7z M166.1,56.6
	c-0.1-8.5-2.4-14-7.1-16.4c-3.6,0-5.8,0.9-6.5,2.7v2.3c4.2,0,6.4,7.3,6.4,21.9l-0.9,10.6l2.1,2.1h5.6l1.3-1.3
	c4.2-21.7,11.4-32.4,21.7-32.4c0.9,0,1.8,0.1,2.6,0.2c0.3-0.8,0.4-1.7,0.4-2.5c0-3-2.3-4.6-6.7-4.6C176.3,39,170,44.9,166.1,56.6z
	 M214.3,79.4c6-1.5,12.8-4.6,20.5-9.4v-5h-2c-9.7,5-15.4,7.5-17.1,7.5h-4.4c-3,0-4.5-0.7-4.5-2v-1h0.1c16-8.6,24-16.1,24-22.3
	c-1.2-5.3-3.7-7.9-7.6-7.9c-4.3,0-10.4,3.1-18.2,9.4c-4.1,7.9-7.4,12.6-9.9,14.2c0,3.4,1,5.2,2.9,5.2
	C198.2,74.4,203.5,78.1,214.3,79.4z M205.5,64.1h-0.7l1.8-6c3.4-5.7,7.3-9.2,11.5-10.6c2.9,0,4.4,0.3,4.4,0.9v1.9
	C218.5,56.6,212.5,61.5,205.5,64.1z"/>
</svg>
