<svg xmlns="http://www.w3.org/2000/svg" width="334.474" height="108.388" viewBox="0 0 334.474 108.388"><path d="M17.836-4.312c5.586,0,13.034-4.508,22.54-13.426l-2.548-2.45H34.79c-7.84,6.174-13.132,9.31-15.876,9.31C12.838-11.956,9.8-16.072,9.8-23.324V-28.91l1.862-10.976C17.934-60.466,24.01-70.658,29.89-70.658L26.558-73.99,19.7-71.736Q4.7-55.566,0-25.088C2.254-11.172,7.546-4.312,15.974-4.312ZM73.892-6.566a15.047,15.047,0,0,0,4.7-8.918,57.6,57.6,0,0,0,.686-8.232,88.269,88.269,0,0,0-1.47-14.6,9.382,9.382,0,0,0-5.39-8.722H71.05a15.291,15.291,0,0,0-4.508-.686q-10.437,0-16.758,16.17L49-28.028a276.648,276.648,0,0,1,2.352-28.518c1.372-7.056,2.45-13.622,3.136-19.6-.882-5.684-2.352-8.526-4.312-8.526H48.412L46.06-82.026c0,1.372-.2,4.116-.588,8.134C44.3-70.56,42.924-56.35,41.356-31.164v16.17c0,3.822,1.568,6.468,4.606,7.84H49.2C56.056-28.616,61.642-39.3,66.052-39.3a2.11,2.11,0,0,1,1.078.2c3.136.882,4.7,5,4.7,12.152a107.518,107.518,0,0,1-1.96,17.738l2.352,2.646ZM93.786-20.384c-1.274-.49-1.96-3.234-1.96-8.232L93-34.5q2.205-9.261,7.056-11.76c1.764,0,3.332,1.764,4.7,5.39v7.546C101.136-26.852,97.51-22.54,93.786-20.384Zm12.936-5.194c2.45,6.664,6.272,10,11.564,10h2.352v-1.274q-8.232-4.851-8.232-14.994l.588-.784v-.686l-.588-.784,1.96-9.114c.588,0,.882-1.47.882-4.508,0-1.568-.882-3.332-2.548-5.292-3.822,0-5.684,1.078-5.684,3.234q-2.058-2.646-6.762-2.646c-9.8,2.254-15.19,12.446-16.072,30.674.49,5.88,3.43,8.82,8.722,8.82Q99.372-12.936,106.722-25.578ZM137.69-6.664l1.764-2.94a203.347,203.347,0,0,1-.882-21.952,384.722,384.722,0,0,1,2.646-47.236q-1.176-5.292-3.822-5.292h-3.528l-1.274,1.47a10.672,10.672,0,0,1,.1,1.862q0,4.7-2.058,15.582a272.222,272.222,0,0,0-2.352,34.1,170.592,170.592,0,0,0,1.372,22.05l3.528,2.352Zm20.874,0,1.764-2.94a203.347,203.347,0,0,1-.882-21.952,384.722,384.722,0,0,1,2.646-47.236q-1.176-5.292-3.822-5.292h-3.528l-1.274,1.47a10.672,10.672,0,0,1,.1,1.862q0,4.7-2.058,15.582a272.222,272.222,0,0,0-2.352,34.1,170.592,170.592,0,0,0,1.372,22.05l3.528,2.352Zm24.4-6.272c5.978-1.47,12.838-4.606,20.482-9.408v-5h-1.96c-9.7,5-15.386,7.546-17.052,7.546h-4.41c-3.038,0-4.508-.686-4.508-1.96v-.98h.1c15.974-8.624,24.01-16.072,24.01-22.344q-1.764-7.938-7.644-7.938-6.468,0-18.228,9.408c-4.116,7.938-7.448,12.642-9.9,14.21,0,3.43.98,5.194,2.94,5.194C166.8-17.934,172.186-14.21,182.966-12.936Zm-8.82-15.288h-.686l1.764-5.978q5.145-8.526,11.466-10.584,4.41,0,4.41.882v1.862A33.89,33.89,0,0,1,174.146-28.224Zm34.986,15.386q3.234,0,6.468-10.29c6.076-13.132,12.054-19.6,17.934-19.6H235.3c1.568.588,2.254,2.842,2.254,6.86,0,1.274-.49,7.546-1.666,18.62v3.92h6.272a95.908,95.908,0,0,0,3.822-25.088l-.1-2.94Q243.677-53.41,233.534-53.41c-8.722,1.764-15.288,8.526-19.6,20.286v-9.31c-.882-5.292-2.94-7.938-6.272-7.938l-2.058,1.96.1,6.566a90.352,90.352,0,0,0-.882,14.406V-14.8l2.058,1.96Zm62.132,6.174q-6.762,24.99-11.76,24.99h-2.548a6.293,6.293,0,0,1-2.058-4.9,16.383,16.383,0,0,1,1.96-6.86A33.791,33.791,0,0,1,271.264-6.664Zm-10.78-20.58-2.94-4.018c.2-7.742,2.156-13.524,5.88-17.444Q268.569-53.557,274.3-54a24.809,24.809,0,0,1,.294,3.724c0,.98-.588,4.8-1.764,11.564Q267.834-27.538,260.484-27.244Zm13.524-1.47.2.686-1.666,14.9-6.86,2.45c-12.642,7.056-18.914,15.19-18.914,24.4l.1,1.47q3.528,8.526,10,8.526h5l1.764-1.764c5.292,0,10.388-9.9,15.386-29.694,0-2.548,4.8-4.41,14.406-5.684v-2.352l-1.47-1.372-12.054.882.882-8.232V-37.73c1.47-8.918,2.254-13.524,2.254-14.014,0-5.194-2.548-8.036-7.644-8.722H269.5C256.76-53.7,250.39-44.982,250.39-34.2v1.666c0,4.9,2.254,8.624,6.86,11.27h7.938C269.892-24.4,272.832-26.852,274.008-28.714Zm39.984,15.778c5.978-1.47,12.838-4.606,20.482-9.408v-5h-1.96c-9.7,5-15.386,7.546-17.052,7.546h-4.41c-3.038,0-4.508-.686-4.508-1.96v-.98h.1c15.974-8.624,24.01-16.072,24.01-22.344q-1.764-7.938-7.644-7.938-6.468,0-18.228,9.408c-4.116,7.938-7.448,12.642-9.9,14.21,0,3.43.98,5.194,2.94,5.194C297.822-17.934,303.212-14.21,313.992-12.936Zm-8.82-15.288h-.686L306.25-34.2q5.145-8.526,11.466-10.584,4.41,0,4.41.882v1.862A33.89,33.89,0,0,1,305.172-28.224Z" transform="translate(0 84.672)" fill="#f4f5f6"/></svg>