<svg id="_1" data-name="1" xmlns="http://www.w3.org/2000/svg" xmlns:xlink="http://www.w3.org/1999/xlink" width="65.899" height="60.407" viewBox="0 0 65.899 60.407">
  <defs>
    <clipPath id="clip-path">
      <rect id="사각형_2179" data-name="사각형 2179" width="65.899" height="60.407" fill="#0097e0"/>
    </clipPath>
  </defs>
  <g id="그룹_17628" data-name="그룹 17628" clip-path="url(#clip-path)">
    <path id="패스_29507" data-name="패스 29507" d="M61.78,139.241V106.292a5.5,5.5,0,0,0-5.492-5.492h-9.61v2.746h9.61a2.749,2.749,0,0,1,2.746,2.746h-9.61v2.746h9.61v30.2H6.864v-30.2h9.61v-2.746H6.864a2.749,2.749,0,0,1,2.746-2.746h9.61V100.8H9.61a5.5,5.5,0,0,0-5.492,5.492v32.949H0v5.492a5.5,5.5,0,0,0,5.492,5.492H60.407a5.5,5.5,0,0,0,5.492-5.492v-5.492Zm-23.339,2.746a1.375,1.375,0,0,1-1.373,1.373H28.831a1.375,1.375,0,0,1-1.373-1.373Zm24.712,2.746a2.749,2.749,0,0,1-2.746,2.746H5.492a2.749,2.749,0,0,1-2.746-2.746v-2.746H24.712a4.123,4.123,0,0,0,4.119,4.119h8.237a4.123,4.123,0,0,0,4.119-4.119H63.153Z" transform="translate(0 -89.817)" fill="#0097e0"/>
    <path id="패스_29508" data-name="패스 29508" d="M193.119,32.949h16.475a4.123,4.123,0,0,0,4.119-4.119V17.848a4.125,4.125,0,0,0-2.746-3.883V9.61a9.61,9.61,0,0,0-19.22,0v4.355A4.125,4.125,0,0,0,189,17.848V28.831a4.123,4.123,0,0,0,4.119,4.119M194.492,9.61a6.864,6.864,0,0,1,13.729,0v4.119H194.492Zm-2.746,8.237a1.375,1.375,0,0,1,1.373-1.373h16.475a1.375,1.375,0,0,1,1.373,1.373V28.831a1.375,1.375,0,0,1-1.373,1.373H193.119a1.375,1.375,0,0,1-1.373-1.373Z" transform="translate(-168.407)" fill="#0097e0"/>
    <rect id="사각형_2178" data-name="사각형 2178" width="2.746" height="5.492" transform="translate(31.576 20.593)" fill="#0097e0"/>
  </g>
</svg>
