<?xml version="1.0" encoding="utf-8"?>
<!-- Generator: Adobe Illustrator 26.0.1, SVG Export Plug-In . SVG Version: 6.00 Build 0)  -->
<svg version="1.1" id="Layer_1" xmlns="http://www.w3.org/2000/svg" xmlns:xlink="http://www.w3.org/1999/xlink" x="0px" y="0px"
	 viewBox="0 0 90 180" style="enable-background:new 0 0 90 180;" xml:space="preserve">
<style type="text/css">
	.st0{fill:#FFFFFF;}
</style>
<path class="st0" d="M57.1,49.4c0.2-0.1,0.5,0,0.6,0.2c0,0.1,0,0.2,0,0.3c-2.8,7.9-11.4,12-19.3,9.2c-7.9-2.8-12-11.4-9.2-19.3
	c1.8-5,6-8.7,11.2-9.7c0.2,0,0.5,0.1,0.5,0.3c0,0.1,0,0.2-0.1,0.3c-3.6,5.9-3.9,12.5-0.3,16.7S50.8,52.1,57.1,49.4z M48.2,30.6
	l-0.2,1c-0.1,0.8-0.8,1.4-1.6,1.6l-1,0.2c-0.2,0-0.3,0.2-0.3,0.4c0,0.1,0.1,0.2,0.3,0.3l1,0.2c0.8,0.1,1.4,0.8,1.6,1.6l0.2,1
	c0,0.2,0.2,0.3,0.4,0.3c0.1,0,0.2-0.1,0.3-0.3l0.2-1c0.1-0.8,0.8-1.4,1.6-1.6l1-0.2c0.2,0,0.3-0.2,0.3-0.4c0-0.1-0.1-0.2-0.3-0.3
	l-1-0.2c-0.8-0.1-1.4-0.8-1.6-1.6l-0.2-1c0-0.2-0.2-0.3-0.4-0.3C48.4,30.4,48.3,30.5,48.2,30.6L48.2,30.6z M55.1,40.4L55,41.1
	c-0.1,0.6-0.6,1-1.1,1.1l-0.7,0.1c-0.1,0-0.2,0.1-0.2,0.3c0,0.1,0.1,0.2,0.2,0.2l0.7,0.1c0.6,0.1,1,0.6,1.1,1.1l0.1,0.7
	c0,0.1,0.1,0.2,0.3,0.2c0.1,0,0.2-0.1,0.2-0.2l0.1-0.7c0.1-0.6,0.6-1,1.1-1.1l0.7-0.1c0.1,0,0.2-0.1,0.2-0.3c0-0.1-0.1-0.2-0.2-0.2
	l-0.7-0.1c-0.6-0.1-1-0.6-1.1-1.1l-0.1-0.7c0-0.1-0.1-0.2-0.3-0.2C55.2,40.2,55.1,40.3,55.1,40.4L55.1,40.4z M58.4,32.4l-0.2,0.9
	c-0.1,0.7-0.7,1.3-1.4,1.4L56,34.8c-0.2,0-0.3,0.2-0.2,0.4c0,0.1,0.1,0.2,0.2,0.2l0.9,0.2c0.7,0.1,1.3,0.7,1.4,1.4l0.2,0.9
	c0,0.2,0.2,0.3,0.4,0.2c0.1,0,0.2-0.1,0.2-0.2l0.2-0.9c0.1-0.7,0.7-1.3,1.4-1.4l0.9-0.2c0.2,0,0.3-0.2,0.2-0.4
	c0-0.1-0.1-0.2-0.2-0.2l-0.9-0.2c-0.7-0.1-1.3-0.7-1.4-1.4L59,32.4c0-0.2-0.2-0.3-0.4-0.2C58.5,32.2,58.4,32.3,58.4,32.4L58.4,32.4z
	"/>
<g transform="translate(-34.811 -57.37)">
	<g transform="translate(34.81 57.371)">
		<path d="M30.6,137.4l-4.5,1.2c-0.8,0.2-1.2,1-1,1.7c0.2,0.6,0.7,1,1.4,1c0.1,0,0.2,0,0.4,0l4.5-1.2c-0.2-0.4-0.3-0.9-0.4-1.3
			S30.7,137.9,30.6,137.4z"/>
		<path d="M59.4,132.6l4.5-1.2c0.8-0.2,1.2-1,1-1.7s-1-1.2-1.7-1c0,0,0,0,0,0l-4.5,1.2c0.2,0.4,0.3,0.9,0.4,1.3
			S59.3,132.1,59.4,132.6z"/>
		<path d="M56.2,125.7l3.3-3.3c0.5-0.5,0.5-1.4,0-2c-0.5-0.5-1.4-0.5-2,0l0,0l-3.3,3.3C55,124.4,55.6,125,56.2,125.7z"/>
		<path d="M42.6,120.6l-1.2-4.5c-0.2-0.8-1-1.2-1.7-1s-1.2,1-1,1.7l1.2,4.5c0.4-0.2,0.9-0.3,1.3-0.4S42.1,120.7,42.6,120.6z"/>
		<path d="M33.8,144.3l-3.3,3.3c-0.5,0.5-0.5,1.4,0,2c0.5,0.5,1.4,0.5,2,0l3.3-3.3C35,145.6,34.4,145,33.8,144.3z"/>
		<path d="M35.7,123.8l-3.3-3.3c-0.5-0.5-1.4-0.5-2,0c-0.5,0.5-0.5,1.4,0,2l3.3,3.3C34.4,125,35,124.4,35.7,123.8z"/>
		<path d="M51.3,116.9c0.2-0.8-0.2-1.5-1-1.7c-0.8-0.2-1.5,0.2-1.7,1l-1.2,4.5c0.9,0.2,1.8,0.4,2.7,0.7L51.3,116.9z"/>
		<path d="M38.7,153.1c-0.2,0.8,0.2,1.5,1,1.7c0,0,0,0,0,0c0.1,0,0.2,0,0.4,0c0.6,0,1.2-0.4,1.4-1l1.2-4.5c-0.9-0.2-1.8-0.4-2.7-0.7
			L38.7,153.1z"/>
		<path d="M54.3,146.2l3.3,3.3c0.5,0.5,1.4,0.5,2,0c0.5-0.5,0.5-1.4,0-2l-3.3-3.3C55.6,145,55,145.6,54.3,146.2z"/>
		<path d="M63.8,138.6l-4.5-1.2c-0.2,0.9-0.4,1.8-0.7,2.7l4.5,1.2c0.1,0,0.2,0,0.4,0c0.8,0,1.4-0.6,1.4-1.4
			C64.9,139.3,64.4,138.8,63.8,138.6z"/>
		<path d="M26.9,128.7c-0.7-0.2-1.5,0.2-1.7,1c-0.2,0.7,0.2,1.5,1,1.7c0,0,0,0,0,0l4.5,1.2c0.2-0.9,0.4-1.8,0.7-2.7L26.9,128.7z"/>
		<path d="M47.4,149.4l1.2,4.5c0.2,0.6,0.7,1,1.4,1c0.1,0,0.2,0,0.4,0c0.8-0.2,1.2-1,1-1.7c0,0,0,0,0,0l-1.2-4.5
			c-0.4,0.2-0.9,0.3-1.3,0.4S47.9,149.3,47.4,149.4z"/>
	</g>
	<g transform="translate(43.191 65.752)">
		<path d="M36.6,115.1c-6.3,0-11.5,5.1-11.5,11.5c0,6.3,5.1,11.5,11.5,11.5c6.3,0,11.5-5.1,11.5-11.5
			C48.1,120.3,43,115.1,36.6,115.1z"/>
	</g>
</g>
</svg>
