<?xml version="1.0" encoding="utf-8"?>
<!-- Generator: Adobe Illustrator 26.0.1, SVG Export Plug-In . SVG Version: 6.00 Build 0)  -->
<svg version="1.1" id="Layer_1" xmlns="http://www.w3.org/2000/svg" xmlns:xlink="http://www.w3.org/1999/xlink" x="0px" y="0px"
	 viewBox="0 0 85 170" style="enable-background:new 0 0 85 170;" xml:space="preserve">
<style type="text/css">
	.st0{opacity:0.8;}
	.st1{fill:#FFFFFF;}
	.st2{fill:#333333;}
</style>
<g transform="translate(837.275 693.3)" class="st0">
	<path class="st1" d="M-817.3-667.3c0.2,0,0.4,0.1,0.6,0.2l10.7,7.5l10.7-7.5c0.3-0.2,0.8-0.2,1.2,0l10.3,7.5l10.4-7.5
		c0.4-0.3,1.1-0.2,1.4,0.2c0.1,0.2,0.2,0.4,0.2,0.6v22.2c0,0.3-0.2,0.6-0.4,0.8l-10.9,7.9c-0.3,0.3-0.8,0.3-1.2,0l-10.5-7.5
		l-10.6,7.5c-0.3,0.2-0.8,0.2-1.2,0l-11.3-7.9c-0.3-0.2-0.4-0.5-0.4-0.8l0-22.2C-818.3-666.9-817.8-667.3-817.3-667.3L-817.3-667.3z
		 M-783.7-657.4c-0.2,0-0.4-0.1-0.6-0.2l-10.4-7.5l-10.7,7.5c-0.3,0.2-0.8,0.2-1.1,0l-9.7-6.8l0,19.8l10.3,7.2l10.6-7.5
		c0.3-0.2,0.8-0.2,1.2,0l10.5,7.5l9.9-7.2v-19.8l-9.4,6.8C-783.3-657.4-783.5-657.4-783.7-657.4L-783.7-657.4z"/>
	<path class="st1" d="M-783.9-636.4c-0.6,0-1-0.4-1-1v-21.4c0-0.6,0.4-1,1-1c0.6,0,1,0.4,1,1v21.4
		C-782.9-636.9-783.3-636.4-783.9-636.4z"/>
	<path class="st1" d="M-806.1-636.4c-0.6,0-1-0.4-1-1v-21.4c0-0.6,0.4-1,1-1c0.6,0,1,0.4,1,1v21.4
		C-805.1-636.9-805.6-636.4-806.1-636.4z"/>
	<path class="st1" d="M-795-644.4c-0.6,0-1-0.4-1-1V-666c0-0.6,0.4-1,1-1s1,0.4,1,1v20.6C-794-644.8-794.5-644.4-795-644.4z"/>
</g>
<g transform="translate(837.275 693.3)">
	<path class="st2" d="M-817.3-582.4c0.2,0,0.4,0.1,0.6,0.2l10.7,7.5l10.7-7.5c0.3-0.2,0.8-0.2,1.2,0l10.3,7.5l10.4-7.5
		c0.4-0.3,1.1-0.2,1.4,0.2c0.1,0.2,0.2,0.4,0.2,0.6v22.2c0,0.3-0.2,0.6-0.4,0.8l-10.9,7.9c-0.3,0.3-0.8,0.3-1.2,0l-10.5-7.5
		l-10.6,7.5c-0.3,0.2-0.8,0.2-1.2,0l-11.3-7.9c-0.3-0.2-0.4-0.5-0.4-0.8l0-22.2C-818.3-582-817.8-582.4-817.3-582.4L-817.3-582.4z
		 M-783.7-572.5c-0.2,0-0.4-0.1-0.6-0.2l-10.4-7.5l-10.7,7.5c-0.3,0.2-0.8,0.2-1.1,0l-9.7-6.8l0,19.8l10.3,7.2l10.6-7.5
		c0.3-0.2,0.8-0.2,1.2,0l10.5,7.5l9.9-7.2v-19.8l-9.4,6.8C-783.3-572.6-783.5-572.5-783.7-572.5L-783.7-572.5z"/>
	<path class="st2" d="M-783.9-551.6c-0.6,0-1-0.4-1-1V-574c0-0.6,0.4-1,1-1c0.6,0,1,0.4,1,1v21.4
		C-782.9-552-783.3-551.6-783.9-551.6z"/>
	<path class="st2" d="M-806.1-551.6c-0.6,0-1-0.4-1-1V-574c0-0.6,0.4-1,1-1c0.6,0,1,0.4,1,1v21.4
		C-805.1-552-805.6-551.6-806.1-551.6z"/>
	<path class="st2" d="M-795-559.5c-0.6,0-1-0.4-1-1v-20.6c0-0.6,0.4-1,1-1s1,0.4,1,1v20.6C-794-560-794.5-559.5-795-559.5z"/>
</g>
</svg>
