<?xml version="1.0" encoding="utf-8"?>
<!-- Generator: Adobe Illustrator 26.0.1, SVG Export Plug-In . SVG Version: 6.00 Build 0)  -->
<svg version="1.1" id="Layer_1" xmlns="http://www.w3.org/2000/svg" xmlns:xlink="http://www.w3.org/1999/xlink" x="0px" y="0px"
	 viewBox="0 0 85 170" style="enable-background:new 0 0 85 170;" xml:space="preserve">
<style type="text/css">
	.st0{opacity:0.8;}
	.st1{fill:#FFFFFF;}
	.st2{fill:#333333;}
</style>
<g transform="translate(685.812 573.747)" class="st0">
	<path class="st1" d="M-664.1-527.2h12.6c0.6,0,1,0.4,1,1v10.9c0,0.6-0.4,1-1,1h-12.6c-0.6,0-1-0.4-1-1v-10.9
		C-665.1-526.8-664.6-527.2-664.1-527.2z M-652.4-525.2h-10.6v8.9h10.6V-525.2z"/>
	<path class="st1" d="M-637.1-527.2h13.5c0.6,0,1,0.4,1,1v10.9c0,0.6-0.4,1-1,1h-13.5c-0.6,0-1-0.4-1-1v-10.9
		C-638.1-526.8-637.7-527.2-637.1-527.2z M-624.7-525.2h-11.5v8.9h11.5V-525.2z"/>
	<path class="st1" d="M-668.3-531.4h48.8c0.6,0,1,0.4,1,1v15.8c0.2,2.3-1.5,4.3-3.8,4.5c-0.2,0-0.3,0-0.5,0H-637
		c-2.6,0-5.3-1.8-5.3-4.5v-8.9h-3v8.9c0,1.3-0.6,2.5-1.6,3.3c-1,0.8-2.2,1.2-3.4,1.2h-14.2c-1.2,0-2.4-0.4-3.3-1.3
		c-0.9-0.9-1.4-2-1.4-3.3v-15.8C-669.3-531-668.8-531.4-668.3-531.4z M-620.5-529.4h-46.8v14.8c0,1.4,1.1,2.5,2.4,2.5
		c0.1,0,0.2,0,0.2,0h14.2c1.5,0.1,2.8-1,3-2.5v-9.9c0-0.6,0.4-1,1-1h5c0.6,0,1,0.4,1,1v9.9c0,1.4,1.8,2.5,3.3,2.5h14.2
		c1.2,0,2.3-0.9,2.3-2.2c0-0.1,0-0.2,0-0.4L-620.5-529.4z"/>
	<path class="st1" d="M-664.6-529.4h-3.8c-0.6,0-1-0.4-1-1c0-0.2,0-0.4,0.1-0.5l12.6-21c0.2-0.3,0.5-0.5,0.9-0.5h2.1
		c0.5,0,0.9,0.4,1,0.8l1.3,8.6c0.1,0.4-0.1,0.7-0.4,0.9l-1.9,1.6c-0.4,0.3-1.1,0.3-1.4-0.1c-0.1-0.1-0.1-0.2-0.2-0.3l-0.6-1.9
		l-7.8,12.9C-663.9-529.6-664.3-529.4-664.6-529.4z M-666.7-531.4h1.5l8.7-14.3c0.3-0.5,0.9-0.6,1.4-0.3c0.2,0.1,0.4,0.3,0.4,0.5
		l0.8,2.6l0.4-0.3l-1.1-7.2h-0.7L-666.7-531.4z"/>
	<path class="st1" d="M-619.1-529.4h-3.8c-0.4,0-0.7-0.2-0.9-0.5l-7.8-12.9l-0.6,1.9c-0.2,0.5-0.7,0.8-1.3,0.6
		c-0.1,0-0.2-0.1-0.3-0.2l-1.9-1.6c-0.3-0.2-0.4-0.6-0.4-0.9l1.3-8.6c0.1-0.5,0.5-0.8,1-0.8h2.1c0.4,0,0.7,0.2,0.9,0.5l12.6,21
		c0.3,0.5,0.1,1.1-0.3,1.4C-618.8-529.5-619-529.4-619.1-529.4L-619.1-529.4z M-622.4-531.4h1.5l-11.4-19h-0.7l-1.1,7.2l0.4,0.3
		l0.8-2.6c0.2-0.5,0.7-0.8,1.3-0.6c0.2,0.1,0.4,0.2,0.5,0.4L-622.4-531.4z"/>
</g>
<g transform="translate(685.812 573.747)">
	<path class="st2" d="M-664.1-442.2h12.6c0.6,0,1,0.4,1,1v10.9c0,0.6-0.4,1-1,1h-12.6c-0.6,0-1-0.4-1-1v-10.9
		C-665.1-441.8-664.6-442.2-664.1-442.2z M-652.4-440.2h-10.6v8.9h10.6V-440.2z"/>
	<path class="st2" d="M-637.1-442.2h13.5c0.6,0,1,0.4,1,1v10.9c0,0.6-0.4,1-1,1h-13.5c-0.6,0-1-0.4-1-1v-10.9
		C-638.1-441.8-637.7-442.2-637.1-442.2z M-624.7-440.2h-11.5v8.9h11.5V-440.2z"/>
	<path class="st2" d="M-668.3-446.4h48.8c0.6,0,1,0.4,1,1v15.8c0.2,2.3-1.5,4.3-3.8,4.5c-0.2,0-0.3,0-0.5,0H-637
		c-2.6,0-5.3-1.8-5.3-4.5v-8.9h-3v8.9c0,1.3-0.6,2.5-1.6,3.3c-1,0.8-2.2,1.2-3.4,1.2h-14.2c-1.2,0-2.4-0.4-3.3-1.3
		c-0.9-0.9-1.4-2-1.4-3.3v-15.8C-669.3-446-668.8-446.4-668.3-446.4z M-620.5-444.4h-46.8v14.8c0,1.4,1.1,2.5,2.4,2.5
		c0.1,0,0.2,0,0.2,0h14.2c1.5,0.1,2.8-1,3-2.5v-9.9c0-0.6,0.4-1,1-1h5c0.6,0,1,0.4,1,1v9.9c0,1.4,1.8,2.5,3.3,2.5h14.2
		c1.2,0,2.3-0.9,2.3-2.2c0-0.1,0-0.2,0-0.4L-620.5-444.4z"/>
	<path class="st2" d="M-664.6-444.4h-3.8c-0.6,0-1-0.4-1-1c0-0.2,0-0.4,0.1-0.5l12.6-21c0.2-0.3,0.5-0.5,0.9-0.5h2.1
		c0.5,0,0.9,0.4,1,0.8l1.3,8.6c0.1,0.4-0.1,0.7-0.4,0.9l-1.9,1.6c-0.4,0.3-1.1,0.3-1.4-0.1c-0.1-0.1-0.1-0.2-0.2-0.3l-0.6-1.9
		l-7.8,12.9C-663.9-444.6-664.3-444.4-664.6-444.4z M-666.7-446.4h1.5l8.7-14.3c0.3-0.5,0.9-0.6,1.4-0.3c0.2,0.1,0.4,0.3,0.4,0.5
		l0.8,2.6l0.4-0.3l-1.1-7.2h-0.7L-666.7-446.4z"/>
	<path class="st2" d="M-619.1-444.4h-3.8c-0.4,0-0.7-0.2-0.9-0.5l-7.8-12.9l-0.6,1.9c-0.2,0.5-0.7,0.8-1.3,0.6
		c-0.1,0-0.2-0.1-0.3-0.2l-1.9-1.6c-0.3-0.2-0.4-0.6-0.4-0.9l1.3-8.6c0.1-0.5,0.5-0.8,1-0.8h2.1c0.4,0,0.7,0.2,0.9,0.5l12.6,21
		c0.3,0.5,0.1,1.1-0.3,1.4C-618.8-444.5-619-444.4-619.1-444.4L-619.1-444.4z M-622.4-446.4h1.5l-11.4-19h-0.7l-1.1,7.2l0.4,0.3
		l0.8-2.6c0.2-0.5,0.7-0.8,1.3-0.6c0.2,0.1,0.4,0.2,0.5,0.4L-622.4-446.4z"/>
</g>
</svg>
