<svg id="ic" xmlns="http://www.w3.org/2000/svg" xmlns:xlink="http://www.w3.org/1999/xlink" width="47.707" height="48" viewBox="0 0 47.707 48">
  <defs>
    <clipPath id="clip-path">
      <rect id="사각형_2152" data-name="사각형 2152" width="47.707" height="48" fill="rgba(0,0,0,0)" stroke="#2143bb" stroke-linecap="round" stroke-linejoin="round" stroke-width="2"/>
    </clipPath>
  </defs>
  <line id="선_460" data-name="선 460" x2="7" transform="translate(10 38)" fill="none" stroke="#2143bb" stroke-linecap="round" stroke-linejoin="round" stroke-width="2"/>
  <g id="그룹_17538" data-name="그룹 17538">
    <g id="그룹_17537" data-name="그룹 17537" clip-path="url(#clip-path)">
      <path id="패스_29705" data-name="패스 29705" d="M43,42v5H19V11a3,3,0,0,0-6,0V35a3,3,0,0,1-6,0V4A3,3,0,0,0,1,4V9H5" fill="rgba(0,0,0,0)" stroke="#2143bb" stroke-linecap="round" stroke-linejoin="round" stroke-width="2"/>
      <path id="패스_29706" data-name="패스 29706" d="M16,8H40a3,3,0,0,1,3,3v6" fill="rgba(0,0,0,0)" stroke="#2143bb" stroke-linecap="round" stroke-linejoin="round" stroke-width="2"/>
      <path id="패스_29707" data-name="패스 29707" d="M5,1H27a3,3,0,0,1,3,3V6" fill="rgba(0,0,0,0)" stroke="#2143bb" stroke-linecap="round" stroke-linejoin="round" stroke-width="2"/>
      <circle id="타원_164" data-name="타원 164" cx="10" cy="10" r="10" transform="translate(25 18)" fill="rgba(0,0,0,0)" stroke="#2143bb" stroke-linecap="round" stroke-linejoin="round" stroke-width="2"/>
      <line id="선_461" data-name="선 461" x2="6" y2="6" transform="translate(41 36)" fill="none" stroke="#2143bb" stroke-linecap="round" stroke-linejoin="round" stroke-width="2"/>
      <line id="선_462" data-name="선 462" y1="3" transform="translate(31 30)" fill="none" stroke="#2143bb" stroke-linecap="round" stroke-linejoin="round" stroke-width="2"/>
      <line id="선_463" data-name="선 463" y1="11" transform="translate(35 22)" fill="none" stroke="#2143bb" stroke-linecap="round" stroke-linejoin="round" stroke-width="2"/>
      <line id="선_464" data-name="선 464" y1="7" transform="translate(39 26)" fill="none" stroke="#2143bb" stroke-linecap="round" stroke-linejoin="round" stroke-width="2"/>
    </g>
  </g>
</svg>
