<svg xmlns="http://www.w3.org/2000/svg" xmlns:xlink="http://www.w3.org/1999/xlink" width="55" height="50" viewBox="0 0 55 50">
  <defs>
    <clipPath id="clip-path">
      <rect id="사각형_2149" data-name="사각형 2149" width="55" height="50" transform="translate(-0.428 0.239)" fill="rgba(0,0,0,0)" stroke="#333" stroke-linecap="round" stroke-linejoin="round" stroke-width="2"/>
    </clipPath>
  </defs>
  <g id="ic1-3" transform="translate(0.428 -0.239)" opacity="0.7">
    <g id="그룹_17532" data-name="그룹 17532" transform="translate(0 0)" clip-path="url(#clip-path)">
      <path id="패스_29679" data-name="패스 29679" d="M78.109,63.327h9.632a13.747,13.747,0,0,0,11.653-6.455,2.962,2.962,0,0,0,.449-1.567A1.046,1.046,0,0,0,98.8,54.261H83.945" transform="translate(-46.312 -32.172)" fill="rgba(0,0,0,0)" stroke="#333" stroke-linecap="round" stroke-linejoin="round" stroke-width="2"/>
      <path id="패스_29680" data-name="패스 29680" d="M67.516,5.743a4.073,4.073,0,1,0-4.241,3.9A4.073,4.073,0,0,0,67.516,5.743Z" transform="translate(-35.203 -0.889)" fill="rgba(0,0,0,0)" stroke="#333" stroke-linecap="round" stroke-linejoin="round" stroke-width="2"/>
      <line id="선_457" data-name="선 457" x1="10.031" y2="16.066" transform="translate(26.235 19.446)" fill="none" stroke="#333" stroke-linecap="round" stroke-linejoin="round" stroke-width="2"/>
      <path id="패스_29681" data-name="패스 29681" d="M50.643,88.1,48.2,92.34a2.775,2.775,0,0,0,1.015,3.791l.18.1.18.1a2.775,2.775,0,0,0,3.791-1.014l2.448-4.239L54.59,87.232Z" transform="translate(-28.355 -51.721)" fill="rgba(0,0,0,0)" stroke="#333" stroke-linecap="round" stroke-linejoin="round" stroke-width="2"/>
      <path id="패스_29682" data-name="패스 29682" d="M25.647,63.327H13.6A13.747,13.747,0,0,1,1.949,56.872,2.962,2.962,0,0,1,1.5,55.3a1.046,1.046,0,0,1,1.043-1.043h11.67a3.994,3.994,0,0,1,3.243,1.6c.884,1.216,2.947,2.605,7.758,2.14,2.219-.208,3.579-1.279,4.078-3.121l.169-.623h2.922" transform="translate(-0.889 -32.172)" fill="rgba(0,0,0,0)" stroke="#333" stroke-linecap="round" stroke-linejoin="round" stroke-width="2"/>
      <path id="패스_29683" data-name="패스 29683" d="M55.152,117.291a7.19,7.19,0,0,1-6.215-3.577,7.188,7.188,0,0,1-12.43,0,7.187,7.187,0,0,1-12.43,0,7.188,7.188,0,0,1-12.43,0,7.19,7.19,0,0,1-6.215,3.577" transform="translate(-3.221 -67.423)" fill="rgba(0,0,0,0)" stroke="#333" stroke-linecap="round" stroke-linejoin="round" stroke-width="2"/>
      <path id="패스_29684" data-name="패스 29684" d="M73.038,95.525a7.235,7.235,0,0,0,3.553-3.068,7.187,7.187,0,0,0,12.43,0,7.189,7.189,0,0,0,6.215,3.577" transform="translate(-43.305 -54.819)" fill="rgba(0,0,0,0)" stroke="#333" stroke-linecap="round" stroke-linejoin="round" stroke-width="2"/>
      <path id="패스_29685" data-name="패스 29685" d="M5.433,96.035a7.189,7.189,0,0,0,6.215-3.577A7.191,7.191,0,0,0,20.584,95.5" transform="translate(-3.221 -54.82)" fill="rgba(0,0,0,0)" stroke="#333" stroke-linecap="round" stroke-linejoin="round" stroke-width="2"/>
      <path id="패스_29686" data-name="패스 29686" d="M70.711,41.55l-4.5-1.885-3.144-3.511" transform="translate(-37.396 -21.436)" fill="rgba(0,0,0,0)" stroke="#333" stroke-linecap="round" stroke-linejoin="round" stroke-width="2"/>
      <path id="패스_29687" data-name="패스 29687" d="M39.912,38,44.8,27.584a3.632,3.632,0,0,1,4.543-1.867l1.285.473a3.631,3.631,0,0,1,1.729,1.336l1.3,1.871a3.946,3.946,0,0,0,1.69,1.377L59,32.335a1.726,1.726,0,0,1,.926,2.225" transform="translate(-23.664 -15.115)" fill="rgba(0,0,0,0)" stroke="#333" stroke-linecap="round" stroke-linejoin="round" stroke-width="2"/>
      <line id="선_458" data-name="선 458" x1="2.574" y2="5.236" transform="translate(25.014 16.854)" fill="none" stroke="#333" stroke-linecap="round" stroke-linejoin="round" stroke-width="2"/>
      <path id="패스_29688" data-name="패스 29688" d="M18.441,64.442h3.12a15.88,15.88,0,0,1-2.184-3.033c-.2-.372-.389-.756-.555-1.148H9.662a11.229,11.229,0,0,0,8.779,4.181" transform="translate(-5.729 -35.73)" fill="rgba(0,0,0,0)" stroke="#333" stroke-linecap="round" stroke-linejoin="round" stroke-width="2"/>
    </g>
  </g>
</svg>
