<svg xmlns="http://www.w3.org/2000/svg" width="58.107" height="40.403" viewBox="0 0 58.107 40.403">
  <g id="ic1-4" transform="translate(-5525.755 -1537.051)" opacity="0.7">
    <g id="그룹_15203" data-name="그룹 15203" transform="translate(5526.755 1562.652)">
      <path id="패스_10665" data-name="패스 10665" d="M5582.862,1616.9a8.111,8.111,0,0,0-14.027,0,8.111,8.111,0,0,0-14.026,0,8.111,8.111,0,0,0-14.027,0,8.111,8.111,0,0,0-14.027,0" transform="translate(-5526.755 -1603.096)" fill="none" stroke="#333" stroke-linecap="round" stroke-linejoin="round" stroke-width="2"/>
      <path id="패스_10666" data-name="패스 10666" d="M5526.755,1595.642a8.111,8.111,0,0,1,14.027,0,8.111,8.111,0,0,1,14.027,0,8.11,8.11,0,0,1,14.026,0,8.111,8.111,0,0,1,14.027,0" transform="translate(-5526.755 -1591.605)" fill="none" stroke="#333" stroke-linecap="round" stroke-linejoin="round" stroke-width="2"/>
    </g>
    <circle id="타원_92" data-name="타원 92" cx="7.12" cy="7.12" r="7.12" transform="translate(5564.236 1538.051)" fill="none" stroke="#333" stroke-linecap="round" stroke-linejoin="round" stroke-width="2"/>
    <path id="패스_10667" data-name="패스 10667" d="M5618.711,1552.779a4.364,4.364,0,1,1,3.086-1.278A4.334,4.334,0,0,1,5618.711,1552.779Z" transform="translate(-47.356 -3.243)" fill="none" stroke="#333" stroke-width="2"/>
    <path id="패스_10668" data-name="패스 10668" d="M5573.348,1565.671l2.315-2.314a2.066,2.066,0,0,0,0-2.92l-8.61-8.61-11.3-6.422-11.206,3.008a2.933,2.933,0,0,0-2.072,3.594h0a2.933,2.933,0,0,0,3.593,2.073l8.7-2.334,7.842,4.523-11.588,11.423" transform="translate(-8.446 -3.976)" fill="none" stroke="#333" stroke-linecap="round" stroke-linejoin="round" stroke-width="2"/>
  </g>
</svg>
