<svg xmlns="http://www.w3.org/2000/svg" xmlns:xlink="http://www.w3.org/1999/xlink" width="45" height="47" viewBox="0 0 45 47">
  <defs>
    <clipPath id="clip-path">
      <rect id="사각형_2031" data-name="사각형 2031" width="45" height="47" fill="none" stroke="#333" stroke-width="2"/>
    </clipPath>
  </defs>
  <g id="ic1-6" opacity="0.7">
    <g id="그룹_16909" data-name="그룹 16909" clip-path="url(#clip-path)">
      <line id="선_291" data-name="선 291" x2="29" transform="translate(14 24)" fill="none" stroke="#333" stroke-linejoin="round" stroke-width="2"/>
      <line id="선_292" data-name="선 292" y2="5" transform="translate(10 39)" fill="none" stroke="#333" stroke-linejoin="round" stroke-width="2"/>
      <path id="패스_29056" data-name="패스 29056" d="M24,46,18,35H11a6,6,0,0,1-6-6V18a4,4,0,0,1,4-4h4l5,6h7s.574,4-4,4H15l-4-4" fill="none" stroke="#333" stroke-linejoin="round" stroke-width="2"/>
      <path id="패스_29057" data-name="패스 29057" d="M14,22v6h5a5,5,0,0,1,4.719,3.348L28.547,46" fill="none" stroke="#333" stroke-linejoin="round" stroke-width="2"/>
      <path id="패스_29058" data-name="패스 29058" d="M1,16V31a8,8,0,0,0,8,8h7" fill="none" stroke="#333" stroke-linejoin="round" stroke-width="2"/>
      <path id="패스_29059" data-name="패스 29059" d="M16,46H12l-2-2L8,46H4" fill="none" stroke="#333" stroke-linejoin="round" stroke-width="2"/>
      <path id="패스_29060" data-name="패스 29060" d="M10.5,11A4.379,4.379,0,0,0,15,6.715V5.285A4.379,4.379,0,0,0,10.5,1,4.379,4.379,0,0,0,6,5.285v1.43A4.379,4.379,0,0,0,10.5,11Z" fill="none" stroke="#333" stroke-linejoin="round" stroke-width="2"/>
      <path id="패스_29061" data-name="패스 29061" d="M22.8,17,26,9H44L39.2,21H28" fill="none" stroke="#333" stroke-linejoin="round" stroke-width="2"/>
    </g>
  </g>
</svg>
