<?xml version="1.0" encoding="utf-8"?>
<!-- Generator: Adobe Illustrator 26.0.1, SVG Export Plug-In . SVG Version: 6.00 Build 0)  -->
<svg version="1.1" id="Layer_1" xmlns="http://www.w3.org/2000/svg" xmlns:xlink="http://www.w3.org/1999/xlink" x="0px" y="0px"
	 viewBox="0 0 90 90" style="enable-background:new 0 0 90 90;" xml:space="preserve">
<style type="text/css">
	.st0{fill:url(#SVGID_1_);}
</style>
<linearGradient id="SVGID_1_" gradientUnits="userSpaceOnUse" x1="-885.7943" y1="570.6472" x2="-885.7943" y2="569.6472" gradientTransform="matrix(34.0002 0 0 -34.0002 30162.2227 19430.0898)">
	<stop  offset="0" style="stop-color:#34DCFF"/>
	<stop  offset="1" style="stop-color:#B9A1FF"/>
</linearGradient>
<path class="st0" d="M45,62c-4.5,0-8.8-1.8-12-5c-3.2-3.2-5-7.5-5-12c0-4.5,1.8-8.8,5-12c3.2-3.2,7.5-5,12-5c4.5,0,8.8,1.8,12,5
	c3.2,3.2,5,7.5,5,12c0,4.5-1.8,8.8-5,12C53.8,60.2,49.5,62,45,62z M45.5,37c-4.7,0-8.5,3.8-8.5,8.5c0,4.7,3.8,8.5,8.5,8.5
	c4.7,0,8.5-3.8,8.5-8.5C54,40.8,50.2,37,45.5,37z"/>
</svg>
