<?xml version="1.0" encoding="utf-8"?>
<!-- Generator: Adobe Illustrator 26.0.1, SVG Export Plug-In . SVG Version: 6.00 Build 0)  -->
<svg version="1.1" id="Layer_1" xmlns="http://www.w3.org/2000/svg" xmlns:xlink="http://www.w3.org/1999/xlink" x="0px" y="0px"
	 viewBox="0 0 85 170" style="enable-background:new 0 0 85 170;" xml:space="preserve">
<style type="text/css">
	.st0{opacity:0.8;}
	.st1{fill:#FFFFFF;}
	.st2{clip-path:url(#SVGID_00000099636111916960520210000002837599201217960351_);}
	.st3{fill:#333333;}
</style>
<g transform="translate(980.667 957.667)" class="st0">
	<path class="st1" d="M-943.7-927.7h-10v-2h10V-927.7z"/>
	<path class="st1" d="M-943.7-922.7h-10v-2h10V-922.7z"/>
	<path class="st1" d="M-946.7-918.7h-7v-2h7V-918.7z"/>
	<g transform="translate(0.333 0.333)">
		<g>
			<defs>
				<rect id="SVGID_1_" x="-961" y="-938" width="46" height="46"/>
			</defs>
			<clipPath id="SVGID_00000103249323113722066040000002677950410497364646_">
				<use xlink:href="#SVGID_1_"  style="overflow:visible;"/>
			</clipPath>
			<g style="clip-path:url(#SVGID_00000103249323113722066040000002677950410497364646_);">
				<path class="st1" d="M-938.9-908.4h-19.6c-1.6,0-2.9-1.3-2.9-2.9v-24.3c0-1.6,1.3-2.9,2.9-2.9h19.6c1.6,0,2.9,1.3,2.9,2.9v2.7
					h4.6c0.6,0,1,0.5,1,1c0,0.3-0.1,0.5-0.3,0.7l-5.3,5.3v3.3h-2v-3.7c0-0.3,0.1-0.5,0.3-0.7l3.9-3.9h-3.2c-0.6,0-1-0.4-1-1v-3.7
					c0-0.5-0.4-0.9-0.9-0.9h-19.6c-0.5,0-0.9,0.4-0.9,0.9v24.3c0,0.5,0.4,0.9,0.9,0.9h19.6c0.5,0,0.9-0.4,0.9-0.9v-1.9h2v1.9
					C-936.1-909.7-937.4-908.4-938.9-908.4z"/>
				<path class="st1" d="M-923-892h-2v-20h2V-892z"/>
				<path class="st1" d="M-924-928c-1.3,0-2.6-0.6-3.4-1.6c-0.9-1.1-1.4-2.6-1.3-4c0-2.6,2.1-4.7,4.7-4.7s4.7,2.1,4.7,4.7
					c0,1.5-0.4,2.9-1.3,4C-921.4-928.6-922.6-928-924-928z M-924-936.4c-1.5,0-2.7,1.2-2.7,2.7c0,2.1,1.2,3.7,2.7,3.7
					c1.6,0,2.7-1.5,2.7-3.7C-921.2-935.2-922.5-936.4-924-936.4z"/>
				<path class="st1" d="M-919.3-891.6h-9.4c-0.6,0-1-0.4-1-1v-26.2l-1.8,2.1c-0.9,1.1-2.2,1.7-3.6,1.7h-4.8c-1.6,0-2.9-1.2-2.9-2.8
					s1.2-2.9,2.8-2.9c0,0,0.1,0,0.1,0h4.1l4.2-5c0.3-0.3,0.6-0.6,1-0.9c2-1.2,4.2-1.7,6.5-1.6c1.8,0,3.5,0.2,5.2,0.7
					c2.5,0.6,4.3,2.9,4.3,5.5v8.8c0,2.1-1.7,3.8-3.7,3.8v16.8C-918.3-892-918.7-891.6-919.3-891.6z M-927.6-893.6h7.4v-28
					c0-0.6,0.4-1,1-1c0.6,0,1,0.4,1,1v10.2c1,0,1.7-0.8,1.7-1.8v-8.9c0-1.7-1.1-3.1-2.7-3.6c-1.5-0.4-3.1-0.6-4.7-0.6
					c-1.9-0.1-3.8,0.4-5.4,1.3c-0.2,0.1-0.4,0.3-0.6,0.5l-4.5,5.3c-0.2,0.2-0.5,0.4-0.8,0.4h-4.6c-0.5,0-0.9,0.4-0.9,0.8
					c0,0.5,0.4,0.9,0.8,0.9c0,0,0,0,0.1,0h4.8c0.8,0,1.6-0.4,2.1-1l3.6-4.3c0.4-0.4,1-0.5,1.4-0.1c0.2,0.2,0.4,0.5,0.4,0.8
					L-927.6-893.6z"/>
			</g>
		</g>
	</g>
</g>
<g transform="translate(980.667 957.667)">
	<path class="st3" d="M-943.7-842.7h-10v-2h10V-842.7z"/>
	<path class="st3" d="M-943.7-837.7h-10v-2h10V-837.7z"/>
	<path class="st3" d="M-946.7-833.7h-7v-2h7V-833.7z"/>
	<g transform="translate(0.333 0.333)">
		<g>
			<g>
				<path class="st3" d="M-938.9-823.4h-19.6c-1.6,0-2.9-1.3-2.9-2.9v-24.3c0-1.6,1.3-2.9,2.9-2.9h19.6c1.6,0,2.9,1.3,2.9,2.9v2.7
					h4.6c0.6,0,1,0.5,1,1c0,0.3-0.1,0.5-0.3,0.7l-5.3,5.3v3.3h-2v-3.7c0-0.3,0.1-0.5,0.3-0.7l3.9-3.9h-3.2c-0.6,0-1-0.4-1-1v-3.7
					c0-0.5-0.4-0.9-0.9-0.9h-19.6c-0.5,0-0.9,0.4-0.9,0.9v24.3c0,0.5,0.4,0.9,0.9,0.9h19.6c0.5,0,0.9-0.4,0.9-0.9v-1.9h2v1.9
					C-936.1-824.7-937.4-823.4-938.9-823.4z"/>
				<path class="st3" d="M-923-807h-2v-20h2V-807z"/>
				<path class="st3" d="M-924-843c-1.3,0-2.6-0.6-3.4-1.6c-0.9-1.1-1.4-2.6-1.3-4c0-2.6,2.1-4.7,4.7-4.7s4.7,2.1,4.7,4.7
					c0,1.5-0.4,2.9-1.3,4C-921.4-843.6-922.6-843-924-843z M-924-851.4c-1.5,0-2.7,1.2-2.7,2.7c0,2.1,1.2,3.7,2.7,3.7
					c1.6,0,2.7-1.5,2.7-3.7C-921.2-850.2-922.5-851.4-924-851.4z"/>
				<path class="st3" d="M-919.3-806.6h-9.4c-0.6,0-1-0.4-1-1v-26.2l-1.8,2.1c-0.9,1.1-2.2,1.7-3.6,1.7h-4.8c-1.6,0-2.9-1.2-2.9-2.8
					s1.2-2.9,2.8-2.9c0,0,0.1,0,0.1,0h4.1l4.2-5c0.3-0.3,0.6-0.6,1-0.9c2-1.2,4.2-1.7,6.5-1.6c1.8,0,3.5,0.2,5.2,0.7
					c2.5,0.6,4.3,2.9,4.3,5.5v8.8c0,2.1-1.7,3.8-3.7,3.8v16.8C-918.3-807-918.7-806.6-919.3-806.6z M-927.6-808.6h7.4v-28
					c0-0.6,0.4-1,1-1c0.6,0,1,0.4,1,1v10.2c1,0,1.7-0.8,1.7-1.8v-8.9c0-1.7-1.1-3.1-2.7-3.6c-1.5-0.4-3.1-0.6-4.7-0.6
					c-1.9-0.1-3.8,0.4-5.4,1.3c-0.2,0.1-0.4,0.3-0.6,0.5l-4.5,5.3c-0.2,0.2-0.5,0.4-0.8,0.4h-4.6c-0.5,0-0.9,0.4-0.9,0.8
					c0,0.5,0.4,0.9,0.8,0.9c0,0,0,0,0.1,0h4.8c0.8,0,1.6-0.4,2.1-1l3.6-4.3c0.4-0.4,1-0.5,1.4-0.1c0.2,0.2,0.4,0.5,0.4,0.8
					L-927.6-808.6z"/>
			</g>
		</g>
	</g>
</g>
</svg>
