<?xml version="1.0" encoding="utf-8"?>
<!-- Generator: Adobe Illustrator 26.0.1, SVG Export Plug-In . SVG Version: 6.00 Build 0)  -->
<svg version="1.1" id="Layer_1" xmlns="http://www.w3.org/2000/svg" xmlns:xlink="http://www.w3.org/1999/xlink" x="0px" y="0px"
	 viewBox="0 0 85 170" style="enable-background:new 0 0 85 170;" xml:space="preserve">
<style type="text/css">
	.st0{opacity:0.8;}
	.st1{fill:#FFFFFF;}
	.st2{fill:#333333;}
</style>
<g class="st0">
	<path class="st1" d="M62.4,32.7L62.4,32.7c0.6,0,1.2,0.3,1.7,0.7l1.8,1.8c0.9,0.7,1,2,0.3,2.9c0,0,0,0,0,0L53,51.3
		c-0.1,0.1-0.3,0.2-0.4,0.3l-4.8,1.3c-0.5,0.1-1.1-0.2-1.2-0.7c0-0.2,0-0.4,0-0.5l1.3-4.9c0-0.2,0.1-0.3,0.3-0.4l13.2-13.2
		C61.5,32.9,62,32.7,62.4,32.7z M64.6,36.8c0-0.1-0.1-0.1-0.1-0.2l-1.8-1.8c-0.1-0.1-0.1-0.1-0.2-0.1L49.6,47.6l-0.8,2.9l2.9-0.8
		L64.6,36.8z"/>
	<path class="st1" d="M62.4,39.5l-3-3l1.4-1.4l3,3L62.4,39.5z"/>
	<path class="st1" d="M33.8,63.9c-0.2,0-0.4,0-0.6-0.1c-0.8-0.2-1.3-1-1.3-1.8v-4.3h-1.6c-3,0-5.4-2.4-5.4-5.4V32.3
		c0-3,2.4-5.4,5.4-5.4h21c3,0,5.4,2.4,5.4,5.4v5.3h-2v-5.3c0-1.9-1.5-3.4-3.4-3.4h-21c-1.9,0-3.4,1.5-3.4,3.4v20.2
		c0,1.9,1.5,3.4,3.4,3.4h3.6v6l6.5-6h10.9c1.9,0,3.4-1.5,3.4-3.4v-1.8h2v1.8c0,3-2.4,5.4-5.4,5.4H41.2l-6,5.5
		C34.8,63.7,34.3,63.9,33.8,63.9z"/>
	<path class="st1" d="M39.1,40.8h-2v-4h2V40.8z"/>
	<path class="st1" d="M43.1,40.8h-2v-4h2V40.8z"/>
	<path class="st1" d="M40.3,47.3c-2.7,0-5.1-1.6-6.2-4.1l1.8-0.8c1,2.4,3.8,3.5,6.2,2.5c1.1-0.5,2-1.4,2.5-2.5l1.8,0.8
		C45.5,45.7,43,47.3,40.3,47.3z"/>
</g>
<g transform="translate(987.5 965)" class="st0">
	<g>
		<g transform="translate(0 0)">
			<path class="st2" d="M-925.1-847.3L-925.1-847.3c0.6,0,1.2,0.3,1.7,0.7l1.8,1.8c0.9,0.7,1,2,0.3,2.9c0,0,0,0,0,0l-13.2,13.2
				c-0.1,0.1-0.3,0.2-0.4,0.3l-4.8,1.3c-0.5,0.1-1.1-0.2-1.2-0.7c0-0.2,0-0.4,0-0.5l1.3-4.9c0-0.2,0.1-0.3,0.3-0.4l13.1-13.2
				C-926-847.1-925.5-847.3-925.1-847.3z M-922.9-843.2c0-0.1-0.1-0.1-0.1-0.2l-1.8-1.8c-0.1-0.1-0.1-0.1-0.2-0.1l-12.8,12.9
				l-0.8,2.9l2.9-0.8L-922.9-843.2z"/>
			<path class="st2" d="M-925.1-840.5l-3-3l1.4-1.4l3,3L-925.1-840.5z"/>
			<path class="st2" d="M-953.7-816.1c-0.2,0-0.4,0-0.6-0.1c-0.8-0.2-1.3-1-1.3-1.8v-4.3h-1.6c-3,0-5.4-2.4-5.4-5.4v-20.2
				c0-3,2.4-5.4,5.4-5.4h21c3,0,5.4,2.4,5.4,5.4v5.3h-2v-5.3c0-1.9-1.5-3.4-3.4-3.4h-21c-1.9,0-3.4,1.5-3.4,3.4v20.2
				c0,1.9,1.5,3.4,3.4,3.4h3.6v6l6.5-6h10.9c1.9,0,3.4-1.5,3.4-3.4v-1.8h2v1.8c0,3-2.4,5.4-5.4,5.4h-10.1l-6,5.5
				C-952.7-816.3-953.2-816.1-953.7-816.1z"/>
			<path class="st2" d="M-948.4-839.2h-2v-4h2V-839.2z"/>
			<path class="st2" d="M-944.4-839.2h-2v-4h2V-839.2z"/>
			<path class="st2" d="M-947.2-832.7c-2.7,0-5.1-1.6-6.2-4.1l1.8-0.8c1,2.4,3.8,3.5,6.2,2.5c1.1-0.5,2-1.4,2.5-2.5l1.8,0.8
				C-942-834.3-944.5-832.7-947.2-832.7z"/>
		</g>
	</g>
</g>
</svg>
