<?xml version="1.0" encoding="utf-8"?>
<!-- Generator: Adobe Illustrator 26.0.1, SVG Export Plug-In . SVG Version: 6.00 Build 0)  -->
<svg version="1.1" id="Layer_1" xmlns="http://www.w3.org/2000/svg" xmlns:xlink="http://www.w3.org/1999/xlink" x="0px" y="0px"
	 viewBox="0 0 88 170" style="enable-background:new 0 0 88 170;" xml:space="preserve">
<style type="text/css">
	.st0{opacity:0.8;}
	.st1{fill:#FFFFFF;}
	.st2{fill:#333333;}
</style>
<g transform="translate(984.241 964.23)" class="st0">
	<path class="st1" d="M-926.5-909.8L-926.5-909.8c-0.5,0-1-0.2-1.3-0.5l-5.7-5.8h-9.5c-1.9,0-3.5-1.6-3.5-3.5v-15.1
		c0-1.9,1.5-3.5,3.5-3.5h19.8c1.9,0,3.5,1.6,3.5,3.5v15.1c0,1.9-1.5,3.5-3.5,3.5h-1.5v4.5C-924.7-910.6-925.5-909.8-926.5-909.8
		C-926.5-909.8-926.5-909.8-926.5-909.8L-926.5-909.8z M-943-936.2c-0.8,0-1.5,0.7-1.5,1.5v15.1c0,0.8,0.7,1.5,1.5,1.5h10.3l6,6.1
		v-6.1h3.5c0.8,0,1.5-0.7,1.5-1.5v-15.1c0-0.8-0.7-1.5-1.5-1.5H-943z"/>
	<path class="st1" d="M-952.1-903.1c-1,0-1.8-0.8-1.8-1.8c0,0,0,0,0,0v-4.5h-2.3c-1.9,0-3.5-1.6-3.5-3.5V-928c0-1.9,1.5-3.5,3.5-3.5
		h9.1v2h-9.1c-0.8,0-1.5,0.7-1.5,1.5v15.1c0,0.8,0.7,1.5,1.5,1.5h4.3v6.1l6-6.1h7c0.8,0,1.5-0.7,1.5-1.5v-2.5h2v2.5
		c0,1.9-1.5,3.5-3.5,3.5h-6.2l-5.7,5.8C-951.2-903.2-951.6-903.1-952.1-903.1z"/>
	<path class="st1" d="M-933-920.9h-2v-2.2h2V-920.9z"/>
	<path class="st1" d="M-932.1-923.8h-2v-1.3c0-1,0.6-1.8,1.4-2.3c0.1-0.1,0.2-0.2,0.4-0.3c0.6-0.5,0.7-0.8,0.7-1.1
		c0.1-0.8-0.5-1.5-1.3-1.5c-0.1,0-0.1,0-0.2,0c-0.7-0.1-1.4,0.5-1.5,1.2c0,0.1,0,0.2,0,0.3v0.8h-2v-0.8c0-1,0.3-1.9,1-2.6
		c0.7-0.6,1.6-1,2.5-1c1.9,0,3.4,1.5,3.5,3.4c0,0.1,0,0.1,0,0.2c0,1.1-0.5,2.1-1.4,2.7c-0.2,0.1-0.3,0.2-0.4,0.3
		c-0.6,0.4-0.6,0.5-0.6,0.7V-923.8z"/>
</g>
<g transform="translate(984.241 964.23)">
	<path class="st2" d="M-926.5-824.8L-926.5-824.8c-0.5,0-1-0.2-1.3-0.5l-5.7-5.8h-9.5c-1.9,0-3.5-1.6-3.5-3.5v-15.1
		c0-1.9,1.5-3.5,3.5-3.5h19.8c1.9,0,3.5,1.6,3.5,3.5v15.1c0,1.9-1.5,3.5-3.5,3.5h-1.5v4.5C-924.7-825.6-925.5-824.8-926.5-824.8
		C-926.5-824.8-926.5-824.8-926.5-824.8L-926.5-824.8z M-943-851.2c-0.8,0-1.5,0.7-1.5,1.5v15.1c0,0.8,0.7,1.5,1.5,1.5h10.3l6,6.1
		v-6.1h3.5c0.8,0,1.5-0.7,1.5-1.5v-15.1c0-0.8-0.7-1.5-1.5-1.5H-943z"/>
	<path class="st2" d="M-952.1-818.1c-1,0-1.8-0.8-1.8-1.8c0,0,0,0,0,0v-4.5h-2.3c-1.9,0-3.5-1.6-3.5-3.5V-843c0-1.9,1.5-3.5,3.5-3.5
		h9.1v2h-9.1c-0.8,0-1.5,0.7-1.5,1.5v15.1c0,0.8,0.7,1.5,1.5,1.5h4.3v6.1l6-6.1h7c0.8,0,1.5-0.7,1.5-1.5v-2.5h2v2.5
		c0,1.9-1.5,3.5-3.5,3.5h-6.2l-5.7,5.8C-951.2-818.3-951.6-818.1-952.1-818.1z"/>
	<path class="st2" d="M-933-835.9h-2v-2.2h2V-835.9z"/>
	<path class="st2" d="M-932.1-838.8h-2v-1.3c0-1,0.6-1.8,1.4-2.3c0.1-0.1,0.2-0.2,0.4-0.3c0.6-0.5,0.7-0.8,0.7-1.1
		c0.1-0.8-0.5-1.5-1.3-1.5c-0.1,0-0.1,0-0.2,0c-0.7-0.1-1.4,0.5-1.5,1.2c0,0.1,0,0.2,0,0.3v0.8h-2v-0.8c0-1,0.3-1.9,1-2.6
		c0.7-0.6,1.6-1,2.5-1c1.9,0,3.4,1.5,3.5,3.4c0,0.1,0,0.1,0,0.2c0,1.1-0.5,2.1-1.4,2.7c-0.2,0.1-0.3,0.2-0.4,0.3
		c-0.6,0.4-0.6,0.5-0.6,0.7V-838.8z"/>
</g>
</svg>
