<?xml version="1.0" encoding="utf-8"?>
<!-- Generator: Adobe Illustrator 26.0.1, SVG Export Plug-In . SVG Version: 6.00 Build 0)  -->
<svg version="1.1" id="Layer_1" xmlns="http://www.w3.org/2000/svg" xmlns:xlink="http://www.w3.org/1999/xlink" x="0px" y="0px"
	 viewBox="0 0 85 170" style="enable-background:new 0 0 85 170;" xml:space="preserve">
<style type="text/css">
	.st0{opacity:0.8;}
	.st1{fill:#FFFFFF;}
	.st2{fill:#333333;}
</style>
<g transform="translate(717.498 726.566)" class="st0">
	<g transform="translate(265.727 233.616)">
		<path class="st1" d="M-961-939h22.4c0.6,0,1,0.4,1,1v39.7c0,0.6-0.4,1-1,1H-961c-0.6,0-1-0.4-1-1V-938
			C-962-938.6-961.6-939-961-939z M-939.6-937H-960v37.7h20.4V-937z"/>
		<path class="st1" d="M-920.6-897.3h-18c-0.6,0-1-0.4-1-1c0-0.6,0.4-1,1-1h17v-27.3l-15.9,6.1c-0.5,0.2-1.1-0.1-1.3-0.6
			c-0.2-0.5,0.1-1.1,0.6-1.3l17.3-6.6c0.5-0.2,1.1,0.1,1.3,0.6c0,0.1,0.1,0.2,0.1,0.4v29.8C-919.6-897.7-920-897.3-920.6-897.3z"/>
		<path class="st1" d="M-953.7-913.3h7.9c0.6,0,1,0.4,1,1v14c0,0.6-0.4,1-1,1h-7.9c-0.6,0-1-0.4-1-1v-14
			C-954.7-912.8-954.3-913.3-953.7-913.3z M-946.8-911.3h-5.9v12h5.9V-911.3z"/>
		<path class="st1" d="M-946.2-928.5h-7.2c-0.6,0-1-0.4-1-1c0-0.6,0.4-1,1-1h7.2c0.6,0,1,0.4,1,1
			C-945.2-929-945.6-928.5-946.2-928.5z"/>
		<path class="st1" d="M-946.2-922.3h-7.2c-0.6,0-1-0.4-1-1c0-0.6,0.4-1,1-1h7.2c0.6,0,1,0.4,1,1
			C-945.2-922.8-945.6-922.3-946.2-922.3z"/>
	</g>
	<path class="st1" d="M-661.7-678.5h-9.9c-0.6,0-1-0.4-1-1c0-0.6,0.4-1,1-1h9.9c0.6,0,1,0.4,1,1C-660.7-679-661.1-678.5-661.7-678.5
		z"/>
	<path class="st1" d="M-661.7-671.6h-9.9c-0.6,0-1-0.4-1-1s0.4-1,1-1h9.9c0.6,0,1,0.4,1,1S-661.1-671.6-661.7-671.6z"/>
</g>
<g transform="translate(717.498 726.566)">
	<g transform="translate(265.727 233.616)">
		<path class="st2" d="M-961-854h22.4c0.6,0,1,0.4,1,1v39.7c0,0.6-0.4,1-1,1H-961c-0.6,0-1-0.4-1-1V-853
			C-962-853.6-961.6-854-961-854z M-939.6-852H-960v37.7h20.4V-852z"/>
		<path class="st2" d="M-920.6-812.3h-18c-0.6,0-1-0.4-1-1c0-0.6,0.4-1,1-1h17v-27.3l-15.9,6.1c-0.5,0.2-1.1-0.1-1.3-0.6
			c-0.2-0.5,0.1-1.1,0.6-1.3l17.3-6.6c0.5-0.2,1.1,0.1,1.3,0.6c0,0.1,0.1,0.2,0.1,0.4v29.8C-919.6-812.7-920-812.3-920.6-812.3z"/>
		<path class="st2" d="M-953.7-828.3h7.9c0.6,0,1,0.4,1,1v14c0,0.6-0.4,1-1,1h-7.9c-0.6,0-1-0.4-1-1v-14
			C-954.7-827.8-954.3-828.3-953.7-828.3z M-946.8-826.3h-5.9v12h5.9V-826.3z"/>
		<path class="st2" d="M-946.2-843.5h-7.2c-0.6,0-1-0.4-1-1c0-0.6,0.4-1,1-1h7.2c0.6,0,1,0.4,1,1
			C-945.2-844-945.6-843.5-946.2-843.5z"/>
		<path class="st2" d="M-946.2-837.3h-7.2c-0.6,0-1-0.4-1-1c0-0.6,0.4-1,1-1h7.2c0.6,0,1,0.4,1,1
			C-945.2-837.8-945.6-837.3-946.2-837.3z"/>
	</g>
	<path class="st2" d="M-661.7-593.5h-9.9c-0.6,0-1-0.4-1-1c0-0.6,0.4-1,1-1h9.9c0.6,0,1,0.4,1,1C-660.7-594-661.1-593.5-661.7-593.5
		z"/>
	<path class="st2" d="M-661.7-586.6h-9.9c-0.6,0-1-0.4-1-1s0.4-1,1-1h9.9c0.6,0,1,0.4,1,1S-661.1-586.6-661.7-586.6z"/>
</g>
</svg>
