<svg xmlns="http://www.w3.org/2000/svg" width="147.34" height="62.522" viewBox="0 0 147.34 62.522"><g transform="translate(-461.708 -371.291)"><g transform="translate(461.708 371.291)"><path d="M501.818,398.15l-.1-.019.094.022,0,0Z" transform="translate(-475.981 -380.865)" fill="none"/><path d="M553.89,402.672a37.385,37.385,0,0,0-3.906-1.482C551.264,401.629,552.565,402.118,553.89,402.672Z" transform="translate(-493.196 -381.956)" fill="none"/><path d="M503.787,380.865c1.835.512,3.868,1.152,6.084,1.95-1.715-.622-3.325-1.151-4.816-1.589Q504.407,381.036,503.787,380.865Z" transform="translate(-476.717 -374.706)" fill="none"/><path d="M514.279,384.272c-.056-.021-.114-.041-.169-.064Z" transform="translate(-480.399 -375.898)" fill="none"/><path d="M546.648,400.105l.344.109c-.093-.03-.186-.06-.279-.091C546.692,400.117,546.67,400.112,546.648,400.105Z" transform="translate(-492.006 -381.569)" fill="none"/><path d="M492.968,435.315a15.192,15.192,0,0,1-15.053-13.174h0a155.551,155.551,0,0,0-16.2-2.2A31.255,31.255,0,0,0,518.2,438.357a84.291,84.291,0,0,0-13.96-8.047A15.151,15.151,0,0,1,492.968,435.315Z" transform="translate(-461.709 -388.645)" fill="#2e6a4d"/><path d="M486.9,423.36h0Z" transform="translate(-470.693 -389.864)" fill="#2fa444"/><path d="M541.056,419.158c-2.651-.115-5.853-.246-9.344-.309.016.292.027.586.027.885a15.134,15.134,0,0,1-3.882,10.14c-.013.015-.027.03-.039.046a84.294,84.294,0,0,1,13.96,8.047,31.1,31.1,0,0,0,6.026-18.233C546.891,419.638,544.45,419.4,541.056,419.158Z" transform="translate(-485.289 -388.255)" fill="#2fa444"/><path d="M487.543,396.45l-.094-.022c-8.22-1.61-18.788-2.954-20.666-3.073a31.115,31.115,0,0,0-5.075,17.069c0,.012,0,.026,0,.037a155.538,155.538,0,0,1,16.2,2.2h0c-.006-.048-.011-.094-.017-.14a15.479,15.479,0,0,1-.12-1.877A15.192,15.192,0,0,1,487.543,396.45Z" transform="translate(-461.708 -379.161)" fill="#54ab34"/><path d="M541.927,415.158a63.39,63.39,0,0,0-11.634-7.5,15.084,15.084,0,0,1,2.291,7.063c0,.045.008.089.011.133,3.491.062,6.693.194,9.344.309A.032.032,0,0,1,541.927,415.158Z" transform="translate(-486.172 -384.265)" fill="#54ab34"/><path d="M486.9,423.36h0Z" transform="translate(-470.693 -389.864)" fill="#54ab34"/><path d="M501.882,398.158l-.011,0h0Z" transform="translate(-476.034 -380.874)" fill="#6ab451"/><path d="M548.39,419.324c3.394.237,5.835.48,6.749.576-.934-.1-3.38-.351-6.76-.585A.05.05,0,0,0,548.39,419.324Z" transform="translate(-492.623 -388.42)" fill="#6ab451"/><path d="M548.39,419.324a.05.05,0,0,1-.012-.01h0A.034.034,0,0,0,548.39,419.324Z" transform="translate(-492.623 -388.42)" fill="#6ab451"/><path d="M498.4,381.937l-.169-.064-.556-.2c-2.217-.8-4.25-1.438-6.084-1.95a54.054,54.054,0,0,0-11.282-2.06A31.455,31.455,0,0,0,469.6,387.757c1.878.119,12.447,1.463,20.666,3.073l.1.019.011,0a15.161,15.161,0,0,1,5.411-1c.216,0,.761.019.82.022a61.766,61.766,0,0,1,22.563,2.227c.022.007.044.012.066.017A129.738,129.738,0,0,0,498.4,381.937Z" transform="translate(-464.522 -373.564)" fill="#bdc21a"/><path d="M501.882,398.158l-.011,0,.011,0Z" transform="translate(-476.034 -380.874)" fill="#bdc21a"/><path d="M498.8,377.811c9.847-2.019,20.311.334,23.405,1.137a31.237,31.237,0,0,0-35.956-3.557,52.741,52.741,0,0,1,11.282,2.06Q498.152,377.621,498.8,377.811Z" transform="translate(-470.462 -371.291)" fill="#21b8d9"/><path d="M486.25,377.663a54.055,54.055,0,0,1,11.282,2.06A52.742,52.742,0,0,0,486.25,377.663Z" transform="translate(-470.462 -373.564)" fill="#21b8d9"/><path d="M548.985,400.863q-.911-.313-1.8-.589Q548.082,400.566,548.985,400.863Z" transform="translate(-492.196 -381.629)" fill="#4ec0db"/><path d="M513.8,384.1l-.556-.2Z" transform="translate(-480.091 -375.787)" fill="#4ec0db"/><path d="M535.2,394.487a122.8,122.8,0,0,0-20.828-10.18A129.744,129.744,0,0,1,535.2,394.487Z" transform="translate(-480.493 -375.934)" fill="#4ec0db"/><path d="M486.9,423.36" transform="translate(-470.694 -389.864)" fill="#fff"/><line transform="translate(16.206 33.496)" fill="#fff"/><g transform="translate(28.338 5.722)"><path d="M555.253,403.174c-.323-.147-.843-.351-1.447-.576C554.287,402.785,554.767,402.97,555.253,403.174Z" transform="translate(-522.897 -388.18)" fill="none"/><path d="M534.209,393.7c.809.279,1.631.585,2.459.906.6.225,1.124.43,1.447.576a31.352,31.352,0,0,0-8.95-13.06c-3.094-.8-13.558-3.155-23.405-1.137,1.491.438,5.485,1.832,5.541,1.853a122.8,122.8,0,0,1,20.828,10.18l.14.048.138.044Q533.307,393.4,534.209,393.7Z" transform="translate(-505.759 -380.186)" fill="#4ec0db"/><path d="M540.189,400.914c-.486-.2-.966-.389-1.447-.576-.827-.321-1.649-.627-2.459-.906q-.9-.3-1.8-.589l-.138-.044-.206-.065a61.769,61.769,0,0,0-22.563-2.227,15.181,15.181,0,0,1,12.013,7.043l.03.046a63.388,63.388,0,0,1,11.634,7.5h0c3.38.234,5.826.486,6.761.585,0-.073,0-.145,0-.217A31.235,31.235,0,0,0,540.189,400.914Z" transform="translate(-507.833 -385.919)" fill="#6ab451"/></g></g><g transform="translate(534.014 391.017)"><g transform="translate(0 17.612)"><g transform="translate(24.797 0.225)"><path d="M614.556,432.534a1,1,0,0,1,.411.2.916.916,0,0,1,.241.32,1.458,1.458,0,0,1,.107.419,3.709,3.709,0,0,1,.031.486,4.107,4.107,0,0,1-.042.562,1.4,1.4,0,0,1-.186.521,1.1,1.1,0,0,1-.4.383,1.618,1.618,0,0,1-1.368,0,1.1,1.1,0,0,1-.4-.383,1.445,1.445,0,0,1-.184-.521,3.832,3.832,0,0,1-.043-.562,4.23,4.23,0,0,1,.029-.486,1.5,1.5,0,0,1,.112-.419.911.911,0,0,1,.237-.32,1.032,1.032,0,0,1,.415-.2l-.014-.017a.84.84,0,0,1-.374-.18.911.911,0,0,1-.218-.306,1.479,1.479,0,0,1-.109-.4,3.5,3.5,0,0,1-.026-.459c0-.13.007-.275.023-.437a1.153,1.153,0,0,1,.15-.461.973.973,0,0,1,.371-.363,1.446,1.446,0,0,1,.718-.145,1.412,1.412,0,0,1,.71.145.993.993,0,0,1,.373.363,1.14,1.14,0,0,1,.149.461,3.932,3.932,0,0,1,.024.437,3.732,3.732,0,0,1-.027.459,1.579,1.579,0,0,1-.108.4.966.966,0,0,1-.221.306.892.892,0,0,1-.382.18Zm-.517,2.654a.82.82,0,0,0,.4-.091.664.664,0,0,0,.258-.245,1.094,1.094,0,0,0,.14-.372,2.322,2.322,0,0,0,.046-.457c0-.149-.009-.3-.023-.455a1.144,1.144,0,0,0-.109-.412.734.734,0,0,0-.257-.3.964.964,0,0,0-.926,0,.752.752,0,0,0-.256.3,1.158,1.158,0,0,0-.109.412c-.014.153-.021.306-.021.455a2.235,2.235,0,0,0,.042.457,1.2,1.2,0,0,0,.14.372.663.663,0,0,0,.261.245A.822.822,0,0,0,614.039,435.187Zm0-2.839a.789.789,0,0,0,.375-.08.648.648,0,0,0,.248-.232,1,1,0,0,0,.13-.348,2.124,2.124,0,0,0,.042-.448,2.918,2.918,0,0,0-.034-.451.927.927,0,0,0-.127-.342.631.631,0,0,0-.242-.22,1.068,1.068,0,0,0-.787,0,.632.632,0,0,0-.246.22.961.961,0,0,0-.123.342,2.537,2.537,0,0,0-.039.451,2.311,2.311,0,0,0,.041.448.994.994,0,0,0,.134.348.613.613,0,0,0,.245.232A.788.788,0,0,0,614.039,432.348Z" transform="translate(-612.678 -429.71)" fill="#313133"/><path d="M614.012,435.6a1.426,1.426,0,0,1-.713-.158,1.14,1.14,0,0,1-.416-.4,1.413,1.413,0,0,1-.194-.539,4.256,4.256,0,0,1-.039-.57,3.927,3.927,0,0,1,.028-.495,1.557,1.557,0,0,1,.113-.431.932.932,0,0,1,.252-.336.956.956,0,0,1,.291-.165.983.983,0,0,1-.266-.156.961.961,0,0,1-.229-.325,1.546,1.546,0,0,1-.112-.415,3.959,3.959,0,0,1-.029-.466,4.213,4.213,0,0,1,.026-.442,1.2,1.2,0,0,1,.154-.482,1.037,1.037,0,0,1,.391-.382,1.861,1.861,0,0,1,1.478,0,1.057,1.057,0,0,1,.392.382,1.286,1.286,0,0,1,.155.482c.014.163.024.312.024.442a3.108,3.108,0,0,1-.033.466,1.629,1.629,0,0,1-.107.415.954.954,0,0,1-.237.325.188.188,0,1,0,.03.321.9.9,0,0,1,.251.336,1.469,1.469,0,0,1,.116.431,4.044,4.044,0,0,1,.03.495,3.582,3.582,0,0,1-.047.57,1.368,1.368,0,0,1-.19.539,1.116,1.116,0,0,1-.418.4A1.392,1.392,0,0,1,614.012,435.6Zm0-5.813a1.412,1.412,0,0,0-.69.137.929.929,0,0,0-.356.347,1.145,1.145,0,0,0-.142.441c-.014.159-.023.3-.023.431a3.421,3.421,0,0,0,.028.454,1.5,1.5,0,0,0,.1.387.805.805,0,0,0,.207.289.793.793,0,0,0,.35.169l.013,0,.082.092-.082.019a.955.955,0,0,0-.39.187.839.839,0,0,0-.227.3,1.429,1.429,0,0,0-.109.4,3.855,3.855,0,0,0-.026.482,4.07,4.07,0,0,0,.042.555,1.376,1.376,0,0,0,.181.5,1.05,1.05,0,0,0,.378.366,1.328,1.328,0,0,0,.661.142,1.3,1.3,0,0,0,.653-.142,1.026,1.026,0,0,0,.383-.366,1.413,1.413,0,0,0,.176-.5,3.78,3.78,0,0,0,.043-.555,4.125,4.125,0,0,0-.027-.482,1.523,1.523,0,0,0-.108-.4.909.909,0,0,0-.221-.3,1.038,1.038,0,0,0-.4-.187l-.039-.01v-.093l.042-.013a.853.853,0,0,0,.358-.169.789.789,0,0,0,.207-.289,1.4,1.4,0,0,0,.106-.387,3.564,3.564,0,0,0,.028-.454c0-.127-.01-.272-.026-.431a1.09,1.09,0,0,0-.142-.441.921.921,0,0,0-.354-.347A1.4,1.4,0,0,0,614.012,429.784Zm0,5.424a.9.9,0,0,1-.434-.094.775.775,0,0,1-.279-.264,1.227,1.227,0,0,1-.145-.39,2.253,2.253,0,0,1-.045-.468c0-.151.007-.307.02-.461a1.241,1.241,0,0,1,.117-.429.754.754,0,0,1,.271-.318.85.85,0,0,1,.5-.127.862.862,0,0,1,.493.127.789.789,0,0,1,.269.318,1.328,1.328,0,0,1,.114.429c.014.154.023.309.023.461a2.152,2.152,0,0,1-.048.468,1.259,1.259,0,0,1-.147.39.714.714,0,0,1-.276.264A.885.885,0,0,1,614.012,435.208Zm0-2.45a.751.751,0,0,0-.437.109.664.664,0,0,0-.239.28,1.172,1.172,0,0,0-.1.392c-.014.152-.024.3-.024.452a2.2,2.2,0,0,0,.043.448,1.086,1.086,0,0,0,.136.354.626.626,0,0,0,.241.231.939.939,0,0,0,.763,0,.653.653,0,0,0,.239-.231,1.052,1.052,0,0,0,.135-.354,2.335,2.335,0,0,0,.043-.448c0-.149-.006-.3-.02-.452a1.193,1.193,0,0,0-.105-.392.683.683,0,0,0-.239-.28A.744.744,0,0,0,614.012,432.759Zm0-.386a.888.888,0,0,1-.408-.088.69.69,0,0,1-.264-.249,1.138,1.138,0,0,1-.14-.367,2.463,2.463,0,0,1-.039-.458,2.783,2.783,0,0,1,.036-.459,1,1,0,0,1,.133-.363.651.651,0,0,1,.266-.236.949.949,0,0,1,.418-.082.932.932,0,0,1,.411.082.633.633,0,0,1,.268.236,1.074,1.074,0,0,1,.132.363,2.957,2.957,0,0,1,.038.459,2.76,2.76,0,0,1-.039.458,1.2,1.2,0,0,1-.143.367.666.666,0,0,1-.269.249A.862.862,0,0,1,614.012,432.373Zm0-2.2a.8.8,0,0,0-.371.073.51.51,0,0,0-.225.2.905.905,0,0,0-.123.324,2.956,2.956,0,0,0-.033.443,2.529,2.529,0,0,0,.038.436.97.97,0,0,0,.127.335.6.6,0,0,0,.226.212.747.747,0,0,0,.36.077.768.768,0,0,0,.353-.077.608.608,0,0,0,.23-.212.953.953,0,0,0,.122-.335,2.021,2.021,0,0,0,.041-.436,2.521,2.521,0,0,0-.036-.443.847.847,0,0,0-.12-.324.536.536,0,0,0-.223-.2A.816.816,0,0,0,614.012,430.171Z" transform="translate(-612.651 -429.681)" fill="#313133"/></g><path d="M576.509,431a3.372,3.372,0,0,0-.05-.481.922.922,0,0,0-.132-.363.659.659,0,0,0-.263-.231,1.017,1.017,0,0,0-.432-.081,1.043,1.043,0,0,0-.671.194.876.876,0,0,0-.245.711,1.516,1.516,0,0,0,.069.51.881.881,0,0,0,.2.321,1.743,1.743,0,0,0,.309.246,4.8,4.8,0,0,1,.4.291,4.25,4.25,0,0,0,.468.338,2.154,2.154,0,0,1,.419.334,1.365,1.365,0,0,1,.294.446,1.763,1.763,0,0,1,.112.683,1.7,1.7,0,0,1-.349,1.168,1.586,1.586,0,0,1-2.141-.065,1.916,1.916,0,0,1-.318-1.3h.479c0,.16,0,.32.02.477a1.3,1.3,0,0,0,.113.424.736.736,0,0,0,.293.3,1.1,1.1,0,0,0,.545.114.846.846,0,0,0,.676-.265,1.17,1.17,0,0,0,.221-.771,1.284,1.284,0,0,0-.086-.5,1.182,1.182,0,0,0-.241-.369,2.147,2.147,0,0,0-.383-.318c-.148-.1-.318-.22-.5-.347a4.229,4.229,0,0,1-.589-.465,2.013,2.013,0,0,1-.315-.394,1.111,1.111,0,0,1-.131-.369,2.845,2.845,0,0,1-.022-.4,1.892,1.892,0,0,1,.1-.65,1.174,1.174,0,0,1,.284-.446,1.092,1.092,0,0,1,.445-.255,2.051,2.051,0,0,1,.58-.08,1.481,1.481,0,0,1,.661.13,1.006,1.006,0,0,1,.4.352,1.4,1.4,0,0,1,.2.509,3.072,3.072,0,0,1,.057.6Z" transform="translate(-574.132 -429.359)" fill="#313133"/><path d="M575.581,435.5a1.381,1.381,0,0,1-1.151-.468,2.01,2.01,0,0,1-.321-1.339v-.046h.576v.049a3.906,3.906,0,0,0,.023.47,1.073,1.073,0,0,0,.107.409.648.648,0,0,0,.271.282,1.037,1.037,0,0,0,.518.1.792.792,0,0,0,.637-.245,1.116,1.116,0,0,0,.211-.737,1.244,1.244,0,0,0-.084-.482,1.2,1.2,0,0,0-.231-.353,2.132,2.132,0,0,0-.373-.313c-.148-.1-.32-.217-.508-.347a4.432,4.432,0,0,1-.594-.471,1.8,1.8,0,0,1-.326-.4,1.143,1.143,0,0,1-.133-.386,3.009,3.009,0,0,1-.026-.407,1.882,1.882,0,0,1,.1-.669,1.12,1.12,0,0,1,.762-.731,2.065,2.065,0,0,1,.594-.082,1.511,1.511,0,0,1,.681.133,1.042,1.042,0,0,1,.418.373,1.434,1.434,0,0,1,.208.527,3.325,3.325,0,0,1,.053.609v.052h-.567l0-.048a2.67,2.67,0,0,0-.047-.474.9.9,0,0,0-.129-.344.586.586,0,0,0-.24-.212.921.921,0,0,0-.409-.077,1.007,1.007,0,0,0-.639.183.812.812,0,0,0-.225.67,1.459,1.459,0,0,0,.066.493.8.8,0,0,0,.186.3,1.623,1.623,0,0,0,.3.237,4.41,4.41,0,0,1,.406.3c.16.124.316.238.47.336a2.5,2.5,0,0,1,.427.338,1.489,1.489,0,0,1,.3.465,1.809,1.809,0,0,1,.115.7,1.776,1.776,0,0,1-.36,1.2A1.388,1.388,0,0,1,575.581,435.5Zm-1.375-1.753a1.883,1.883,0,0,0,.3,1.223,1.541,1.541,0,0,0,2.069.06,1.649,1.649,0,0,0,.335-1.133,1.737,1.737,0,0,0-.109-.662,1.364,1.364,0,0,0-.284-.432,1.957,1.957,0,0,0-.408-.322,5.064,5.064,0,0,1-.476-.345,4.575,4.575,0,0,0-.4-.29,1.626,1.626,0,0,1-.32-.252.99.99,0,0,1-.21-.337,1.656,1.656,0,0,1-.07-.528.916.916,0,0,1,.266-.75,1.1,1.1,0,0,1,.7-.205,1.028,1.028,0,0,1,.453.087.681.681,0,0,1,.28.247,1,1,0,0,1,.148.382c.021.134.036.281.046.438h.368a3.529,3.529,0,0,0-.053-.539,1.313,1.313,0,0,0-.192-.491.983.983,0,0,0-.38-.335,1.376,1.376,0,0,0-.634-.123,1.954,1.954,0,0,0-.566.078,1.061,1.061,0,0,0-.425.243,1.092,1.092,0,0,0-.272.425,1.812,1.812,0,0,0-.1.634,3.778,3.778,0,0,0,.022.393,1.06,1.06,0,0,0,.125.349,1.866,1.866,0,0,0,.3.381,4.06,4.06,0,0,0,.583.459c.187.128.354.245.506.348a2.2,2.2,0,0,1,.39.326,1.272,1.272,0,0,1,.25.382,1.339,1.339,0,0,1,.091.522,1.224,1.224,0,0,1-.234.8.886.886,0,0,1-.714.281,1.167,1.167,0,0,1-.57-.12.769.769,0,0,1-.313-.325,1.227,1.227,0,0,1-.118-.443c-.013-.14-.02-.285-.02-.429Z" transform="translate(-574.105 -429.331)" fill="#313133"/><g transform="translate(3.745 0.113)"><path d="M582.356,429.588v.435h-1.893v2.183h1.8v.437h-1.8v2.345H582.4v.436H580v-5.836Z" transform="translate(-579.953 -429.535)" fill="#313133"/><path d="M582.432,435.446h-2.505v-5.94h2.451v.539h-1.891v2.08h1.808v.538h-1.808v2.243h1.945Zm-2.406-.1h2.3v-.336h-1.945V432.56h1.806v-.335h-1.806v-2.282h1.894v-.334h-2.253Z" transform="translate(-579.927 -429.506)" fill="#313133"/></g><g transform="translate(6.83)"><path d="M584.8,432.44c0-.262,0-.52.006-.771a5.951,5.951,0,0,1,.053-.715,3.421,3.421,0,0,1,.142-.623,1.424,1.424,0,0,1,.268-.49,1.217,1.217,0,0,1,.441-.316,1.664,1.664,0,0,1,.657-.115,1.647,1.647,0,0,1,.655.115,1.2,1.2,0,0,1,.442.316,1.434,1.434,0,0,1,.269.49,3.908,3.908,0,0,1,.143.623,6.694,6.694,0,0,1,.052.715c0,.251.007.509.007.771s0,.523-.007.772a6.681,6.681,0,0,1-.052.717,3.781,3.781,0,0,1-.143.621,1.411,1.411,0,0,1-.269.492,1.214,1.214,0,0,1-.442.32,1.7,1.7,0,0,1-.655.112,1.715,1.715,0,0,1-.657-.112,1.227,1.227,0,0,1-.441-.32,1.4,1.4,0,0,1-.268-.492,3.321,3.321,0,0,1-.142-.621,5.944,5.944,0,0,1-.053-.717C584.8,432.963,584.8,432.707,584.8,432.44Zm.459,0c0,.39.006.742.019,1.061a3.27,3.27,0,0,0,.124.821,1.11,1.11,0,0,0,.331.53,1.169,1.169,0,0,0,1.267,0,1.12,1.12,0,0,0,.331-.53,3.269,3.269,0,0,0,.126-.821c.013-.318.018-.671.018-1.061s0-.74-.018-1.06a3.237,3.237,0,0,0-.126-.818,1.129,1.129,0,0,0-.331-.532,1.176,1.176,0,0,0-1.267,0,1.12,1.12,0,0,0-.331.532,3.237,3.237,0,0,0-.124.818C585.268,431.7,585.262,432.054,585.262,432.44Z" transform="translate(-584.752 -429.359)" fill="#313133"/><path d="M586.342,435.5a1.766,1.766,0,0,1-.674-.115,1.279,1.279,0,0,1-.465-.336,1.451,1.451,0,0,1-.277-.505,3.483,3.483,0,0,1-.142-.631,5.928,5.928,0,0,1-.055-.722c-.006-.248-.006-.51-.006-.774s0-.523.006-.771a5.866,5.866,0,0,1,.055-.72,3.537,3.537,0,0,1,.142-.634,1.518,1.518,0,0,1,.277-.505,1.3,1.3,0,0,1,.465-.334,2.01,2.01,0,0,1,1.348,0,1.226,1.226,0,0,1,.459.334,1.43,1.43,0,0,1,.282.505,4.362,4.362,0,0,1,.143.634,6.268,6.268,0,0,1,.055.72c0,.251.007.514.007.771s-.005.523-.007.774a6.337,6.337,0,0,1-.055.722,4.287,4.287,0,0,1-.143.631,1.371,1.371,0,0,1-.282.505,1.212,1.212,0,0,1-.459.336A1.768,1.768,0,0,1,586.342,435.5Zm0-6.062a1.668,1.668,0,0,0-.635.107,1.161,1.161,0,0,0-.423.307,1.361,1.361,0,0,0-.261.472,3.326,3.326,0,0,0-.138.615,5.732,5.732,0,0,0-.056.706c0,.248,0,.511,0,.771s0,.523,0,.772a5.767,5.767,0,0,0,.056.71,3.255,3.255,0,0,0,.138.612,1.3,1.3,0,0,0,.261.475,1.147,1.147,0,0,0,.423.3,1.887,1.887,0,0,0,1.27,0,1.182,1.182,0,0,0,.423-.3,1.506,1.506,0,0,0,.263-.472,3.338,3.338,0,0,0,.135-.615,5.158,5.158,0,0,0,.053-.71c.007-.249.012-.51.012-.772s0-.516-.012-.771a5.086,5.086,0,0,0-.053-.706,3.336,3.336,0,0,0-.135-.615,1.478,1.478,0,0,0-.263-.472,1.2,1.2,0,0,0-.423-.307A1.66,1.66,0,0,0,586.342,429.433Zm0,5.626a1.026,1.026,0,0,1-.668-.2,1.138,1.138,0,0,1-.343-.555,3,3,0,0,1-.129-.833c-.013-.314-.021-.672-.021-1.062s.008-.744.021-1.06a2.993,2.993,0,0,1,.129-.833,1.127,1.127,0,0,1,.343-.553,1.019,1.019,0,0,1,.668-.2,1,1,0,0,1,.663.2,1.116,1.116,0,0,1,.349.553,3.23,3.23,0,0,1,.127.833c.011.318.019.675.019,1.06s-.008.744-.019,1.062a3.226,3.226,0,0,1-.127.833,1.145,1.145,0,0,1-.345.555A1.019,1.019,0,0,1,586.342,435.059Zm0-5.19a.936.936,0,0,0-.6.174,1.056,1.056,0,0,0-.313.506,3.064,3.064,0,0,0-.122.808c-.014.314-.021.67-.021,1.055s.006.744.021,1.056a3.062,3.062,0,0,0,.122.809,1.035,1.035,0,0,0,.313.506,1.136,1.136,0,0,0,1.2,0,1.065,1.065,0,0,0,.316-.506,3.262,3.262,0,0,0,.122-.809c.013-.314.019-.67.019-1.056s-.006-.74-.019-1.055a3.266,3.266,0,0,0-.122-.808,1.069,1.069,0,0,0-.316-.506A.93.93,0,0,0,586.342,429.869Z" transform="translate(-584.723 -429.331)" fill="#313133"/></g><g transform="translate(10.881 0.113)"><path d="M591.559,433.257c0,.188.007.392.019.607a1.95,1.95,0,0,0,.116.6,1,1,0,0,0,.309.457,1.109,1.109,0,0,0,1.222,0,.993.993,0,0,0,.313-.457,2.01,2.01,0,0,0,.116-.6c.013-.215.019-.419.019-.607v-3.669h.464v4.049a2.961,2.961,0,0,1-.127.933,1.484,1.484,0,0,1-.331.582,1.168,1.168,0,0,1-.483.3,2.024,2.024,0,0,1-.583.083,2,2,0,0,1-.576-.083,1.146,1.146,0,0,1-.485-.3,1.423,1.423,0,0,1-.332-.582,2.972,2.972,0,0,1-.123-.933v-4.049h.461Z" transform="translate(-591.048 -429.535)" fill="#313133"/><path d="M592.586,435.558a2.079,2.079,0,0,1-.592-.086,1.186,1.186,0,0,1-.508-.313,1.6,1.6,0,0,1-.343-.6,3.078,3.078,0,0,1-.124-.949v-4.1h.561v3.721c0,.188.007.392.017.6a2.266,2.266,0,0,0,.112.585,1.039,1.039,0,0,0,.3.436,1.079,1.079,0,0,0,1.156,0,1.013,1.013,0,0,0,.3-.436,2.083,2.083,0,0,0,.111-.585c.01-.214.017-.416.017-.6v-3.721h.56v4.1a3.151,3.151,0,0,1-.121.949,1.553,1.553,0,0,1-.345.6,1.184,1.184,0,0,1-.507.313A2.093,2.093,0,0,1,592.586,435.558Zm-1.466-5.948v4a3.03,3.03,0,0,0,.12.917,1.494,1.494,0,0,0,.319.562,1.081,1.081,0,0,0,.465.287,1.887,1.887,0,0,0,.562.083,1.921,1.921,0,0,0,.567-.083,1.1,1.1,0,0,0,.463-.287,1.461,1.461,0,0,0,.32-.562,3.079,3.079,0,0,0,.118-.917v-4H593.7v3.618c0,.188-.008.392-.02.61a2.117,2.117,0,0,1-.117.611,1.086,1.086,0,0,1-.326.479.986.986,0,0,1-.648.194.975.975,0,0,1-.642-.194,1.07,1.07,0,0,1-.328-.479,2.207,2.207,0,0,1-.12-.611c-.012-.214-.017-.422-.017-.61V429.61Z" transform="translate(-591.02 -429.506)" fill="#313133"/></g><g transform="translate(14.883 0.113)"><path d="M597.319,435.424v-5.836h.459v5.4H599.5v.436Z" transform="translate(-597.268 -429.535)" fill="#313133"/><path d="M599.52,435.446h-2.28v-5.94h.562v5.4h1.718Zm-2.178-.1h2.075v-.336H597.7v-5.4h-.357Z" transform="translate(-597.24 -429.506)" fill="#313133"/></g><g transform="translate(18.734 0.313)"><path d="M603.313,430.78c.165-.129.329-.266.484-.41a2.988,2.988,0,0,0,.422-.472h.4v5.637h-.431v-4.988c-.142.143-.283.284-.427.416a5.745,5.745,0,0,1-.45.376Z" transform="translate(-603.258 -429.846)" fill="#313133"/><path d="M604.64,435.558h-.535v-4.914c-.112.114-.226.224-.338.327-.145.133-.3.26-.456.38l-.085.06v-.685l.022-.014c.167-.129.329-.265.483-.407a2.88,2.88,0,0,0,.413-.465l.016-.021h.48Zm-.429-.1h.327v-5.535h-.324a3.2,3.2,0,0,1-.415.461,5.592,5.592,0,0,1-.47.392v.432c.129-.1.253-.2.371-.31.144-.132.286-.268.42-.413l.091-.094Z" transform="translate(-603.227 -429.818)" fill="#313133"/></g><g transform="translate(21.6 0.225)"><path d="M608.96,433.264a1,1,0,0,1-.933-.436,2.633,2.633,0,0,1-.269-1.336,4.39,4.39,0,0,1,.053-.687,1.585,1.585,0,0,1,.2-.544,1.046,1.046,0,0,1,.383-.363,1.278,1.278,0,0,1,.625-.134,1.49,1.49,0,0,1,.737.148.919.919,0,0,1,.393.432,2.046,2.046,0,0,1,.154.69c.017.268.027.571.027.911v.7q0,.764-.027,1.323a3.443,3.443,0,0,1-.147.914.987.987,0,0,1-.382.525,1.293,1.293,0,0,1-.72.172,1.22,1.22,0,0,1-.927-.313,1.5,1.5,0,0,1-.311-1.031h.464a1.1,1.1,0,0,0,.157.663.617.617,0,0,0,.562.241.931.931,0,0,0,.521-.121.735.735,0,0,0,.254-.407,3.005,3.005,0,0,0,.1-.731c0-.3.014-.672.028-1.108h-.013a1.009,1.009,0,0,1-.409.376A1.14,1.14,0,0,1,608.96,433.264Zm.046-.436a.74.74,0,0,0,.486-.148.889.889,0,0,0,.257-.345,1.461,1.461,0,0,0,.1-.421c.009-.147.019-.264.019-.355,0-.18,0-.348-.014-.509a1.523,1.523,0,0,0-.091-.435.706.706,0,0,0-.252-.3.847.847,0,0,0-.479-.113.687.687,0,0,0-.675.408,1.177,1.177,0,0,0-.113.412c-.015.154-.027.312-.027.473s.012.316.027.473a1.619,1.619,0,0,0,.1.43.783.783,0,0,0,.241.311A.663.663,0,0,0,609.005,432.828Z" transform="translate(-607.709 -429.71)" fill="#313133"/><path d="M609.028,435.6a1.276,1.276,0,0,1-.965-.326,1.584,1.584,0,0,1-.324-1.065v-.051h.564v.051a1.073,1.073,0,0,0,.147.631.576.576,0,0,0,.521.221.856.856,0,0,0,.492-.115.673.673,0,0,0,.237-.375,3.372,3.372,0,0,0,.089-.721c.006-.265.017-.58.025-.962a1.024,1.024,0,0,1-.341.277,1.225,1.225,0,0,1-.542.124,1.055,1.055,0,0,1-.975-.459,2.7,2.7,0,0,1-.276-1.363,3.764,3.764,0,0,1,.057-.695,1.425,1.425,0,0,1,.206-.564,1.077,1.077,0,0,1,.4-.383,1.341,1.341,0,0,1,.646-.14,1.534,1.534,0,0,1,.762.158.967.967,0,0,1,.413.454,1.979,1.979,0,0,1,.16.706c.021.268.026.577.026.915v.7c0,.507-.006.955-.026,1.326a3.417,3.417,0,0,1-.15.928,1.024,1.024,0,0,1-.4.551A1.337,1.337,0,0,1,609.028,435.6Zm-1.184-1.342a1.4,1.4,0,0,0,.294.942,1.168,1.168,0,0,0,.89.3,1.246,1.246,0,0,0,.694-.161.95.95,0,0,0,.36-.5,3.233,3.233,0,0,0,.143-.9c.017-.371.026-.815.026-1.322v-.7c0-.335-.01-.641-.026-.908a1.947,1.947,0,0,0-.149-.672.884.884,0,0,0-.37-.408,1.464,1.464,0,0,0-.714-.142,1.219,1.219,0,0,0-.6.127.988.988,0,0,0-.365.345,1.447,1.447,0,0,0-.192.529,4.018,4.018,0,0,0-.053.677,2.571,2.571,0,0,0,.26,1.307.951.951,0,0,0,.888.412,1.158,1.158,0,0,0,.495-.111.919.919,0,0,0,.382-.358l.019-.024h.1l0,.053c-.008.448-.017.81-.026,1.108a3.3,3.3,0,0,1-.1.742.764.764,0,0,1-.272.434.964.964,0,0,1-.551.134.687.687,0,0,1-.605-.264,1.168,1.168,0,0,1-.168-.641Zm1.134-1.407a.719.719,0,0,1-.449-.133.8.8,0,0,1-.255-.332,1.84,1.84,0,0,1-.108-.441c-.014-.16-.024-.322-.024-.48s.01-.325.024-.479a1.436,1.436,0,0,1,.116-.427.765.765,0,0,1,.269-.315.755.755,0,0,1,.455-.125.888.888,0,0,1,.506.123.7.7,0,0,1,.266.326,1.3,1.3,0,0,1,.1.448c.013.164.017.335.017.515,0,.091-.008.208-.019.358a1.512,1.512,0,0,1-.1.436.989.989,0,0,1-.275.369A.8.8,0,0,1,608.978,432.848Zm.028-2.628a.7.7,0,0,0-.4.1.679.679,0,0,0-.232.278,1.141,1.141,0,0,0-.105.394,4.171,4.171,0,0,0-.026.467,4.451,4.451,0,0,0,.026.47,1.466,1.466,0,0,0,.1.413.7.7,0,0,0,.223.289.615.615,0,0,0,.387.114.7.7,0,0,0,.452-.136.826.826,0,0,0,.242-.327,1.328,1.328,0,0,0,.1-.406c.013-.144.017-.264.017-.351,0-.177,0-.348-.014-.509a1.27,1.27,0,0,0-.089-.412.61.61,0,0,0-.233-.284A.813.813,0,0,0,609.007,430.22Z" transform="translate(-607.682 -429.681)" fill="#313133"/></g><g transform="translate(27.967 0.225)"><path d="M619.488,432.534a1.044,1.044,0,0,1,.416.2.952.952,0,0,1,.237.32,1.451,1.451,0,0,1,.109.419,4.094,4.094,0,0,1,.028.486,3.744,3.744,0,0,1-.041.562,1.347,1.347,0,0,1-.185.521,1.07,1.07,0,0,1-.4.383,1.613,1.613,0,0,1-1.366,0,1.1,1.1,0,0,1-.4-.383,1.427,1.427,0,0,1-.185-.521,4.041,4.041,0,0,1-.012-1.049,1.569,1.569,0,0,1,.109-.419.912.912,0,0,1,.239-.32,1,1,0,0,1,.412-.2l-.012-.017a.824.824,0,0,1-.371-.18.933.933,0,0,1-.222-.306,1.527,1.527,0,0,1-.1-.4,3.49,3.49,0,0,1-.028-.459c0-.13.009-.275.022-.437a1.28,1.28,0,0,1,.149-.461,1.015,1.015,0,0,1,.373-.363,1.821,1.821,0,0,1,1.426,0,.992.992,0,0,1,.374.363,1.18,1.18,0,0,1,.147.461,3.625,3.625,0,0,1,.023.437,3.511,3.511,0,0,1-.024.459,1.549,1.549,0,0,1-.111.4.819.819,0,0,1-.223.306.855.855,0,0,1-.381.18Zm-.519,2.654a.816.816,0,0,0,.406-.091.642.642,0,0,0,.26-.245,1.133,1.133,0,0,0,.138-.372,2.329,2.329,0,0,0,.044-.457c0-.149-.008-.3-.023-.455a1.168,1.168,0,0,0-.107-.412.729.729,0,0,0-.255-.3.97.97,0,0,0-.929,0,.747.747,0,0,0-.255.3,1.155,1.155,0,0,0-.109.412,4.524,4.524,0,0,0-.021.455,2.067,2.067,0,0,0,.043.457,1.147,1.147,0,0,0,.138.372.685.685,0,0,0,.259.245A.822.822,0,0,0,618.97,435.187Zm0-2.839a.785.785,0,0,0,.377-.08.628.628,0,0,0,.248-.232.924.924,0,0,0,.134-.348,2.312,2.312,0,0,0,.042-.448,2.473,2.473,0,0,0-.039-.451.926.926,0,0,0-.126-.342.6.6,0,0,0-.241-.22.9.9,0,0,0-.4-.075.876.876,0,0,0-.392.075.625.625,0,0,0-.246.22.95.95,0,0,0-.126.342,2.6,2.6,0,0,0-.036.451,2.26,2.26,0,0,0,.041.448,1.069,1.069,0,0,0,.133.348.625.625,0,0,0,.245.232A.786.786,0,0,0,618.97,432.348Z" transform="translate(-617.609 -429.71)" fill="#313133"/><path d="M618.941,435.6a1.413,1.413,0,0,1-.71-.158,1.136,1.136,0,0,1-.416-.4,1.5,1.5,0,0,1-.192-.539,3.877,3.877,0,0,1-.043-.57,4.426,4.426,0,0,1,.029-.495,1.621,1.621,0,0,1,.117-.431.912.912,0,0,1,.253-.336.884.884,0,0,1,.289-.165.927.927,0,0,1-.264-.156.873.873,0,0,1-.23-.325,1.531,1.531,0,0,1-.113-.415,3.593,3.593,0,0,1-.028-.466,3.73,3.73,0,0,1,.025-.442,1.208,1.208,0,0,1,.152-.482,1.066,1.066,0,0,1,.39-.382,1.521,1.521,0,0,1,.74-.153,1.493,1.493,0,0,1,.737.153,1.059,1.059,0,0,1,.394.382,1.262,1.262,0,0,1,.152.482c.014.163.027.312.027.442a3.844,3.844,0,0,1-.031.466,1.617,1.617,0,0,1-.109.415.912.912,0,0,1-.237.325.9.9,0,0,1-.266.152.882.882,0,0,1,.3.169.908.908,0,0,1,.251.336,1.516,1.516,0,0,1,.118.431,4.477,4.477,0,0,1,.027.495,4.153,4.153,0,0,1-.043.57,1.472,1.472,0,0,1-.19.539,1.126,1.126,0,0,1-.418.4A1.409,1.409,0,0,1,618.941,435.6Zm0-5.813a1.38,1.38,0,0,0-.684.137.923.923,0,0,0-.358.347,1.172,1.172,0,0,0-.14.441,4.141,4.141,0,0,0-.026.431,3.22,3.22,0,0,0,.03.454,1.353,1.353,0,0,0,.106.387.8.8,0,0,0,.207.289.778.778,0,0,0,.347.169l.013,0,.084.092-.084.019a.98.98,0,0,0-.394.187.892.892,0,0,0-.225.3,1.468,1.468,0,0,0-.1.4,3.846,3.846,0,0,0-.028.482,3.767,3.767,0,0,0,.042.555,1.391,1.391,0,0,0,.177.5,1.059,1.059,0,0,0,.381.366,1.594,1.594,0,0,0,1.316,0,1.067,1.067,0,0,0,.38-.366,1.344,1.344,0,0,0,.176-.5,3.541,3.541,0,0,0,.042-.555,3.868,3.868,0,0,0-.024-.482,1.491,1.491,0,0,0-.111-.4.832.832,0,0,0-.223-.3,1,1,0,0,0-.395-.187l-.036-.01v-.093l.039-.013a.871.871,0,0,0,.36-.169.8.8,0,0,0,.21-.289,1.493,1.493,0,0,0,.1-.387,3.577,3.577,0,0,0,.025-.454c0-.127-.006-.272-.02-.431a1.214,1.214,0,0,0-.142-.441.932.932,0,0,0-.357-.347A1.4,1.4,0,0,0,618.941,429.784Zm0,5.424a.9.9,0,0,1-.431-.094.784.784,0,0,1-.279-.264,1.141,1.141,0,0,1-.144-.39,2.207,2.207,0,0,1-.046-.468c0-.151.008-.307.022-.461a1.15,1.15,0,0,1,.113-.429.782.782,0,0,1,.27-.318.861.861,0,0,1,.494-.127.852.852,0,0,1,.493.127.8.8,0,0,1,.274.318,1.382,1.382,0,0,1,.111.429c.012.154.021.309.021.461a2.107,2.107,0,0,1-.044.468,1.212,1.212,0,0,1-.146.39.712.712,0,0,1-.279.264A.886.886,0,0,1,618.941,435.208Zm0-2.45a.756.756,0,0,0-.435.109.669.669,0,0,0-.237.28,1.113,1.113,0,0,0-.1.392,4.511,4.511,0,0,0-.023.452,2.454,2.454,0,0,0,.044.448,1.1,1.1,0,0,0,.133.354.657.657,0,0,0,.242.231.939.939,0,0,0,.763,0,.673.673,0,0,0,.241-.231,1.13,1.13,0,0,0,.134-.354,2.4,2.4,0,0,0,.045-.448,4.3,4.3,0,0,0-.025-.452,1.234,1.234,0,0,0-.1-.392.681.681,0,0,0-.241-.28A.753.753,0,0,0,618.941,432.759Zm0-.386a.873.873,0,0,1-.406-.088.706.706,0,0,1-.264-.249,1.177,1.177,0,0,1-.138-.367,2.236,2.236,0,0,1-.043-.458,2.454,2.454,0,0,1,.04-.459,1,1,0,0,1,.132-.363.645.645,0,0,1,.266-.236.926.926,0,0,1,.413-.082.955.955,0,0,1,.416.082.632.632,0,0,1,.264.236,1.019,1.019,0,0,1,.133.363,2.891,2.891,0,0,1,.035.459,2.577,2.577,0,0,1-.038.458,1.108,1.108,0,0,1-.143.367.662.662,0,0,1-.268.249A.866.866,0,0,1,618.941,432.373Zm0-2.2a.817.817,0,0,0-.369.073.531.531,0,0,0-.224.2.917.917,0,0,0-.121.324,2.737,2.737,0,0,0-.031.443,2.49,2.49,0,0,0,.035.436.984.984,0,0,0,.126.335.6.6,0,0,0,.226.212.86.86,0,0,0,.712,0,.59.59,0,0,0,.23-.212,1.012,1.012,0,0,0,.124-.335,2.2,2.2,0,0,0,.041-.436,2.562,2.562,0,0,0-.037-.443.835.835,0,0,0-.12-.324.507.507,0,0,0-.223-.2A.815.815,0,0,0,618.941,430.171Z" transform="translate(-617.58 -429.681)" fill="#313133"/></g></g><path d="M577.037,401.954q-2.928,0-2.932,3v5.763a2.89,2.89,0,0,0,.637,2.07,3,3,0,0,0,2.3.757q2.955,0,2.954-3v-5.764a2.935,2.935,0,0,0-.641-2.084A3.063,3.063,0,0,0,577.037,401.954Zm1.217,8.862c0,1-.407,1.5-1.217,1.5s-1.2-.5-1.2-1.5V404.83c0-1.095.4-1.645,1.2-1.645s1.217.55,1.217,1.645Z" transform="translate(-574.105 -401.954)" fill="#1a1818"/><path d="M587.18,402.1h-1.733v11.4h4.65v-1.324H587.18Z" transform="translate(-578.151 -402.007)" fill="#1a1818"/><path d="M593.909,406.9h-.037l-1.509-4.8h-1.737l2.4,6.728V413.5h1.733V408.83l2.417-6.728h-1.53Z" transform="translate(-579.998 -402.007)" fill="#1a1818"/><path d="M606.876,410.787h-.037l-1.6-8.685h-2.763v11.4h1.53V403.237l1.969,10.268h1.758l1.8-10.268V413.5h1.63V402.1h-2.692Z" transform="translate(-584.225 -402.007)" fill="#1a1818"/><path d="M621.112,402.1h-2.863v11.4h1.738v-4.958h1.126a3.046,3.046,0,0,0,2.284-.618,6.63,6.63,0,0,0,0-5.211A3.033,3.033,0,0,0,621.112,402.1Zm.872,4.816c-.138.2-.506.3-1.1.3h-.9v-3.792h.9c.59,0,.958.1,1.1.3a6.28,6.28,0,0,1,0,3.19Z" transform="translate(-589.851 -402.007)" fill="#1a1818"/><rect width="1.737" height="11.403" transform="translate(35.278 0.095)" fill="#1a1818"/><path d="M636.464,401.954q-2.934,0-2.935,3v5.763a2.925,2.925,0,0,0,.627,2.07,2.958,2.958,0,0,0,2.275.757q2.552,0,2.55-2.115v-1.262h-1.629v.787c0,.908-.351,1.36-1.06,1.36q-1.029,0-1.027-1.582v-5.587a5.039,5.039,0,0,1,.106-1.266.93.93,0,0,1,.973-.7c.671,0,1.009.4,1.009,1.184v.79h1.629v-1.138Q638.981,401.957,636.464,401.954Z" transform="translate(-595.301 -401.954)" fill="#1a1818"/><path d="M654.04,402.719a3.039,3.039,0,0,0-2.284-.617H648.89v11.4h1.736v-4.958h1.13a3.052,3.052,0,0,0,2.284-.618,6.667,6.667,0,0,0,0-5.211Zm-1.413,4.2c-.143.2-.5.3-1.1.3h-.906v-3.792h.906c.591,0,.952.1,1.1.3a6.245,6.245,0,0,1,0,3.19Z" transform="translate(-600.78 -402.007)" fill="#1a1818"/><path d="M659.728,402.1l-2.766,11.4H658.7l.573-2.907h2.71l.571,2.907h1.74l-2.557-11.4Zm-.195,7.17,1.1-5.5h.032l1.077,5.5Z" transform="translate(-603.66 -402.007)" fill="#1a1818"/><path d="M675.118,406.935a3.66,3.66,0,0,0,.294-1.723,4.475,4.475,0,0,0-.451-2.493c-.333-.412-1.117-.617-2.344-.617h-2.7v11.4h1.739v-4.958h.593a1.58,1.58,0,0,1,1.1.267,1.687,1.687,0,0,1,.25,1.089v2.576a2.035,2.035,0,0,0,.208,1.025h1.6a10.92,10.92,0,0,1-.07-1.453v-2.478a1.855,1.855,0,0,0-.356-1.241,1.747,1.747,0,0,0-1.223-.5V407.8A2.1,2.1,0,0,0,675.118,406.935Zm-1.713-.047c-.181.221-.608.331-1.295.331h-.452v-3.792h.836c.543,0,.876.1,1,.294a3.8,3.8,0,0,1,.182,1.556A2.978,2.978,0,0,1,673.405,406.888Z" transform="translate(-608.282 -402.007)" fill="#1a1818"/><path d="M684.031,407.456l2.921-5.354H685.2l-2.768,5.2v-5.2H680.7v11.4h1.737v-5.7l2.768,5.7h1.959Z" transform="translate(-612.125 -402.007)" fill="#1a1818"/></g></g></svg>