<svg xmlns="http://www.w3.org/2000/svg" width="18.594" height="20.493" viewBox="0 0 18.594 20.493"><g transform="translate(-3.75 -2.25)"><path d="M25.229,2.25A3.479,3.479,0,1,1,21.75,5.729,3.483,3.483,0,0,1,25.229,2.25Zm0,5.458A1.979,1.979,0,1,0,23.25,5.729,1.981,1.981,0,0,0,25.229,7.708Z" transform="translate(-6.364 0)" fill="#151515"/><path d="M7.229,12.75A3.479,3.479,0,1,1,3.75,16.229,3.483,3.483,0,0,1,7.229,12.75Zm0,5.458A1.979,1.979,0,1,0,5.25,16.229,1.981,1.981,0,0,0,7.229,18.208Z" transform="translate(0 -3.732)" fill="#151515"/><path d="M25.229,30.208a3.479,3.479,0,1,1,3.479-3.479A3.483,3.483,0,0,1,25.229,30.208Zm0-5.458a1.979,1.979,0,1,0,1.979,1.979A1.981,1.981,0,0,0,25.229,24.75Z" transform="translate(-6.364 -7.465)" fill="#151515"/><path d="M18.72,24.533l-6.213-3.62.755-1.3,6.213,3.62Z" transform="translate(-3.3 -6.22)" fill="#151515"/><path d="M13.263,14.033l-.756-1.3,6.2-3.62.756,1.3Z" transform="translate(-3.3 -2.437)" fill="#151515"/></g></svg>