<svg xmlns="http://www.w3.org/2000/svg" width="16.562" height="18.179" viewBox="0 0 16.562 18.179"><g transform="translate(-3.5 -2)"><path d="M6.118,15.5H17.444a2.621,2.621,0,0,1,2.618,2.618v5.663A2.621,2.621,0,0,1,17.444,26.4H6.118A2.621,2.621,0,0,1,3.5,23.781V18.118A2.621,2.621,0,0,1,6.118,15.5Zm11.326,8.9a.619.619,0,0,0,.618-.618V18.118a.619.619,0,0,0-.618-.618H6.118a.619.619,0,0,0-.618.618v5.663a.619.619,0,0,0,.618.618Z" transform="translate(0 -6.219)" fill="#dcdcdc"/><path d="M18.59,11.281a1,1,0,0,1-1-1V7.045a3.045,3.045,0,0,0-6.09,0v3.236a1,1,0,0,1-2,0V7.045a5.045,5.045,0,0,1,10.09,0v3.236A1,1,0,0,1,18.59,11.281Z" transform="translate(-2.764)" fill="#dcdcdc"/></g></svg>