<svg xmlns="http://www.w3.org/2000/svg" width="17.498" height="19.4" viewBox="0 0 17.498 19.4"><g transform="translate(-5 -3.5)"><path d="M21.5,29.312a1,1,0,0,1-1-1V26.375A2.878,2.878,0,0,0,17.624,23.5H9.875A2.874,2.874,0,0,0,7,26.375v1.937a1,1,0,0,1-2,0V26.375A4.875,4.875,0,0,1,9.875,21.5h7.749A4.88,4.88,0,0,1,22.5,26.375v1.937A1,1,0,0,1,21.5,29.312Z" transform="translate(0 -6.412)" fill="#dcdcdc"/><path d="M15.875,3.5A4.875,4.875,0,1,1,11,8.375,4.88,4.88,0,0,1,15.875,3.5Zm0,7.749A2.875,2.875,0,1,0,13,8.375,2.878,2.878,0,0,0,15.875,11.249Z" transform="translate(-2.125 0)" fill="#dcdcdc"/></g></svg>