<svg xmlns="http://www.w3.org/2000/svg" xmlns:xlink="http://www.w3.org/1999/xlink" width="47.978" height="41" viewBox="0 0 47.978 41">
  <defs>
    <clipPath id="clip-path">
      <rect id="사각형_2030" data-name="사각형 2030" width="47.978" height="41" fill="none" stroke="#333" stroke-width="2"/>
    </clipPath>
  </defs>
  <g id="ic1-7" opacity="0.7">
    <g id="그룹_16908" data-name="그룹 16908" clip-path="url(#clip-path)">
      <path id="패스_29051" data-name="패스 29051" d="M31,30H29l-2,2H19L17,30H1V5H3" fill="none" stroke="#333" stroke-width="2"/>
      <path id="패스_29052" data-name="패스 29052" d="M43,4h2V24" fill="none" stroke="#333" stroke-width="2"/>
      <path id="패스_29053" data-name="패스 29053" d="M31,26H29c-1.938,0-3.25.542-4,2H23V7c0-3.25,1.953-6,6-6H41V22" fill="none" stroke="#333" stroke-width="2"/>
      <path id="패스_29054" data-name="패스 29054" d="M5,26H17c1.938,0,3.25.542,4,2h2V7c0-3.25-1.954-6-6-6H5Z" fill="none" stroke="#333" stroke-width="2"/>
      <path id="패스_29055" data-name="패스 29055" d="M46.78,29.42,33,19.407v17c0,.514.44.692.852.292l3.858-3.729,3.723,6.564a1.175,1.175,0,0,0,1.644.249l1.557-.979a1.228,1.228,0,0,0,.521-1.59L41.578,31H46.26C46.853,31,47.23,29.719,46.78,29.42Z" fill="none" stroke="#333" stroke-width="2"/>
    </g>
  </g>
</svg>
