<svg xmlns="http://www.w3.org/2000/svg" width="61.383" height="36.457" viewBox="0 0 61.383 36.457">
  <g id="ic1-2" transform="translate(-116.65 -1018.914)" opacity="0.7">
    <g id="그룹_15210" data-name="그룹 15210" transform="translate(117.378 1018.666)">
      <path id="패스_10681" data-name="패스 10681" d="M214.674,1031.885h6.846l10.15-10.194h-17Z" transform="translate(-174.532 -1020.443)" fill="none" stroke="#333" stroke-linecap="round" stroke-linejoin="round" stroke-width="2"/>
      <path id="패스_10682" data-name="패스 10682" d="M214.674,1031.885h4.25l6.841-10.194H214.674Z" transform="translate(-174.532 -1020.443)" fill="none" stroke="#333" stroke-linecap="round" stroke-linejoin="round" stroke-width="2"/>
      <path id="패스_10683" data-name="패스 10683" d="M214.674,1031.885h1.9l3.848-10.194h-5.751Z" transform="translate(-174.532 -1020.443)" fill="none" stroke="#333" stroke-linecap="round" stroke-linejoin="round" stroke-width="2"/>
      <rect id="사각형_439" data-name="사각형 439" width="5.406" height="34.456" transform="translate(19.246 1.248)" fill="none" stroke="#333" stroke-linecap="round" stroke-linejoin="round" stroke-width="2"/>
      <rect id="사각형_440" data-name="사각형 440" width="5.406" height="34.456" transform="translate(40.142 35.704) rotate(180)" fill="none" stroke="#333" stroke-linecap="round" stroke-linejoin="round" stroke-width="2"/>
      <path id="패스_10685" data-name="패스 10685" d="M139.827,1031.885h-6.846l-10.15-10.194h17Z" transform="translate(-120.581 -1020.443)" fill="none" stroke="#333" stroke-linecap="round" stroke-linejoin="round" stroke-width="2"/>
      <path id="패스_10686" data-name="패스 10686" d="M148.234,1031.885h-4.25l-6.841-10.194h11.091Z" transform="translate(-128.989 -1020.443)" fill="none" stroke="#333" stroke-linecap="round" stroke-linejoin="round" stroke-width="2"/>
      <path id="패스_10687" data-name="패스 10687" d="M155.837,1031.885h-1.9l-3.848-10.194h5.751Z" transform="translate(-136.591 -1020.443)" fill="none" stroke="#333" stroke-linecap="round" stroke-linejoin="round" stroke-width="2"/>
      <rect id="사각형_441" data-name="사각형 441" width="10.084" height="5.808" transform="translate(24.652 3.406)" fill="none" stroke="#333" stroke-linecap="round" stroke-linejoin="round" stroke-width="2"/>
    </g>
    <line id="선_182" data-name="선 182" x2="59.383" transform="translate(117.65 1054.37)" fill="#fff" stroke="#333" stroke-linecap="round" stroke-linejoin="round" stroke-width="2"/>
  </g>
</svg>
