<svg xmlns="http://www.w3.org/2000/svg" xmlns:xlink="http://www.w3.org/1999/xlink" width="53.56" height="59.605" viewBox="0 0 53.56 59.605">
  <defs>
    <clipPath id="clip-path">
      <rect id="사각형_2142" data-name="사각형 2142" width="53.56" height="59.605" transform="translate(0 0)" fill="rgba(0,0,0,0)" stroke="#1b2539" stroke-width="2"/>
    </clipPath>
  </defs>
  <g id="ic2" transform="translate(0 0)">
    <g id="그룹_17522" data-name="그룹 17522" clip-path="url(#clip-path)">
      <path id="패스_29486" data-name="패스 29486" d="M39.349,1.75V51.477H13.424L1.75,39.8V1.75Z" fill="rgba(0,0,0,0)" stroke="#1b2539" stroke-linecap="round" stroke-linejoin="round" stroke-width="2"/>
      <path id="패스_29487" data-name="패스 29487" d="M13.424,51.477V39.8H1.75" fill="rgba(0,0,0,0)" stroke="#1b2539" stroke-linecap="round" stroke-linejoin="round" stroke-width="2"/>
      <path id="패스_29488" data-name="패스 29488" d="M48.076,35.1H30.621a3.733,3.733,0,0,0-3.733,3.734V54.122a3.733,3.733,0,0,0,3.733,3.733H48.076a3.733,3.733,0,0,0,3.734-3.733V38.836A3.734,3.734,0,0,0,48.076,35.1" fill="#fff" stroke="#1b2539" stroke-width="2"/>
      <path id="사각형_2140" data-name="사각형 2140" d="M3.734,0H21.189a3.733,3.733,0,0,1,3.733,3.733V19.02a3.733,3.733,0,0,1-3.733,3.733H3.734A3.734,3.734,0,0,1,0,19.019V3.734A3.734,3.734,0,0,1,3.734,0Z" transform="translate(26.888 35.102)" fill="rgba(0,0,0,0)" stroke="#1b2539" stroke-linecap="round" stroke-linejoin="round" stroke-width="2"/>
      <path id="패스_29489" data-name="패스 29489" d="M46.6,35.1V29.855s.366-6.773-7.254-6.773S32.1,29.855,32.1,29.855V35.1" fill="rgba(0,0,0,0)" stroke="#1b2539" stroke-linecap="round" stroke-linejoin="round" stroke-width="2"/>
      <path id="패스_29490" data-name="패스 29490" d="M43.376,45a4.027,4.027,0,1,0-4.027,4.027A4.027,4.027,0,0,0,43.376,45" fill="none" stroke="#1b2539" stroke-width="2"/>
      <rect id="사각형_2141" data-name="사각형 2141" width="2.149" height="5.491" transform="translate(38.274 48.365)" fill="#1b2539"/>
    </g>
  </g>
</svg>
