<?xml version="1.0" encoding="utf-8"?>
<!-- Generator: Adobe Illustrator 26.0.1, SVG Export Plug-In . SVG Version: 6.00 Build 0)  -->
<svg version="1.1" id="Layer_1" xmlns="http://www.w3.org/2000/svg" xmlns:xlink="http://www.w3.org/1999/xlink" x="0px" y="0px"
	 viewBox="0 0 26 26" style="enable-background:new 0 0 26 26;" xml:space="preserve">
<style type="text/css">
	.st0{fill:#FFFFFF;}
	.st1{fill:#FCFCFC;}
</style>
<g transform="translate(-1887.5 -253.5)">
	<path class="st0" d="M1900.5,279c-6.9,0-12.5-5.6-12.5-12.5h1c0,6.4,5.1,11.5,11.5,11.5s11.5-5.1,11.5-11.5h1
		C1913,273.4,1907.4,279,1900.5,279z"/>
	<path class="st0" d="M1912.5,266.5c0-6.6-5.4-12-12-12s-12,5.4-12,12"/>
	<path class="st1" d="M1913,266.5h-1c0-6.4-5.1-11.5-11.5-11.5s-11.5,5.1-11.5,11.5h-1c0-6.9,5.6-12.5,12.5-12.5
		c3.3,0,6.5,1.3,8.8,3.7C1911.7,260,1913,263.2,1913,266.5z"/>
</g>
</svg>
